<?xml version="1.0" encoding="utf-8"?>
<!-- Generator: Adobe Illustrator 16.0.0, SVG Export Plug-In . SVG Version: 6.00 Build 0)  -->
<!DOCTYPE svg PUBLIC "-//W3C//DTD SVG 1.1//EN" "http://www.w3.org/Graphics/SVG/1.1/DTD/svg11.dtd">
<svg version="1.1" id="Layer_1" xmlns="http://www.w3.org/2000/svg" xmlns:xlink="http://www.w3.org/1999/xlink" x="0px" y="0px"
	 width="528.572px" height="409.091px" viewBox="0 0 528.572 409.091" enable-background="new 0 0 528.572 409.091"
	 xml:space="preserve">
<g>
	<path fill="#F58220" d="M153.544,51.806l12.503,35.798c2.105,5.79,3.816,11.055,5.133,16.319h0.395
		c1.447-5.265,3.29-10.529,5.396-16.319l12.371-35.798h12.108l-25.006,63.698h-11.055l-24.216-63.698H153.544z"/>
	<path fill="#F58220" d="M221.32,33.907c0.132,3.948-2.764,7.107-7.37,7.107c-4.08,0-6.976-3.159-6.976-7.107
		c0-4.079,3.027-7.238,7.239-7.238C218.556,26.669,221.32,29.828,221.32,33.907z M208.422,115.504V51.806h11.581v63.698H208.422z"/>
	<path fill="#F58220" d="M237.901,85.761c0.264,15.661,10.266,22.11,21.847,22.11c8.292,0,13.293-1.448,17.636-3.291l1.975,8.292
		c-4.08,1.842-11.056,3.948-21.189,3.948c-19.609,0-31.322-12.897-31.322-32.112s11.318-34.35,29.875-34.35
		c20.794,0,26.321,18.293,26.321,30.007c0,2.368-0.264,4.211-0.395,5.396H237.901z M271.856,77.47
		c0.132-7.37-3.027-18.82-16.056-18.82c-11.714,0-16.846,10.792-17.768,18.82H271.856z"/>
	<path fill="#F58220" d="M295.543,51.806l8.423,32.376c1.842,7.106,3.553,13.687,4.737,20.268h0.396
		c1.447-6.449,3.553-13.293,5.658-20.136l10.397-32.508h9.739l9.87,31.85c2.369,7.633,4.212,14.345,5.659,20.794h0.395
		c1.053-6.449,2.764-13.161,4.87-20.663l9.08-31.98h11.45l-20.53,63.698h-10.529l-9.738-30.401
		c-2.237-7.106-4.08-13.424-5.659-20.926h-0.264c-1.579,7.634-3.553,14.214-5.79,21.058l-10.266,30.27h-10.528l-19.215-63.698
		H295.543z"/>
</g>
<g>
	<path fill="#F58220" d="M149.07,159.855c0-6.581-0.132-11.977-0.526-17.241h10.134l0.526,10.266h0.395
		c3.554-6.054,9.476-11.713,20.005-11.713c8.686,0,15.266,5.265,18.029,12.766h0.264c1.974-3.553,4.475-6.316,7.106-8.291
		c3.816-2.896,8.028-4.475,14.082-4.475c8.423,0,20.926,5.527,20.926,27.638v37.508h-11.318v-36.061
		c0-12.239-4.475-19.609-13.818-19.609c-6.581,0-11.713,4.869-13.688,10.528c-0.526,1.58-0.921,3.686-0.921,5.791v39.351h-11.318
		v-38.166c0-10.134-4.475-17.504-13.292-17.504c-7.239,0-12.503,5.791-14.346,11.582c-0.658,1.71-0.921,3.685-0.921,5.658v38.43
		H149.07V159.855z"/>
	<path fill="#F58220" d="M257.512,176.569c0.264,15.661,10.266,22.11,21.847,22.11c8.292,0,13.293-1.448,17.636-3.291l1.975,8.292
		c-4.08,1.842-11.056,3.948-21.189,3.948c-19.609,0-31.322-12.897-31.322-32.112s11.318-34.35,29.875-34.35
		c20.794,0,26.321,18.293,26.321,30.007c0,2.368-0.264,4.211-0.395,5.396H257.512z M291.467,168.278
		c0.132-7.37-3.027-18.82-16.056-18.82c-11.714,0-16.846,10.792-17.768,18.82H291.467z"/>
	<path fill="#F58220" d="M347.135,206.312l-0.921-8.028h-0.396c-3.553,5.001-10.396,9.476-19.478,9.476
		c-12.897,0-19.478-9.08-19.478-18.293c0-15.398,13.687-23.821,38.298-23.689v-1.315c0-5.265-1.448-14.74-14.478-14.74
		c-5.922,0-12.107,1.843-16.582,4.737l-2.632-7.633c5.264-3.422,12.897-5.659,20.925-5.659c19.479,0,24.216,13.292,24.216,26.059
		v23.82c0,5.527,0.264,10.924,1.053,15.267H347.135z M345.424,173.806c-12.634-0.264-26.979,1.974-26.979,14.345
		c0,7.502,5.001,11.056,10.924,11.056c8.291,0,13.556-5.265,15.397-10.66c0.396-1.185,0.658-2.501,0.658-3.686V173.806z"/>
	<path fill="#F58220" d="M368.85,159.855c0-6.581-0.132-11.977-0.526-17.241h10.266l0.657,10.529h0.264
		c3.158-6.055,10.528-11.977,21.057-11.977c8.818,0,22.505,5.265,22.505,27.111v38.034h-11.581v-36.719
		c0-10.265-3.816-18.819-14.74-18.819c-7.633,0-13.556,5.396-15.529,11.845c-0.526,1.447-0.79,3.422-0.79,5.396v38.298H368.85
		V159.855z"/>
	<path fill="#F58220" d="M433.731,194.468c3.422,2.237,9.476,4.606,15.267,4.606c8.423,0,12.37-4.212,12.37-9.476
		c0-5.527-3.29-8.555-11.844-11.713c-11.45-4.08-16.846-10.397-16.846-18.03c0-10.266,8.291-18.688,21.978-18.688
		c6.449,0,12.108,1.843,15.662,3.948l-2.896,8.423c-2.501-1.579-7.107-3.685-13.029-3.685c-6.844,0-10.66,3.948-10.66,8.686
		c0,5.265,3.816,7.633,12.107,10.792c11.056,4.211,16.715,9.739,16.715,19.215c0,11.187-8.687,19.083-23.821,19.083
		c-6.976,0-13.424-1.711-17.898-4.344L433.731,194.468z"/>
</g>
<g>
	<path fill="#F58220" d="M149.07,250.664c0-6.581-0.132-11.977-0.526-17.241h10.266l0.657,10.529h0.264
		c3.158-6.055,10.528-11.977,21.057-11.977c8.818,0,22.505,5.265,22.505,27.111v38.034H191.71v-36.719
		c0-10.265-3.816-18.819-14.74-18.819c-7.633,0-13.556,5.396-15.529,11.845c-0.526,1.447-0.79,3.422-0.79,5.396v38.298H149.07
		V250.664z"/>
	<path fill="#F58220" d="M273.173,264.746c0,23.558-16.319,33.822-31.717,33.822c-17.241,0-30.533-12.634-30.533-32.77
		c0-21.32,13.95-33.823,31.586-33.823C260.802,231.976,273.173,245.268,273.173,264.746z M222.636,265.403
		c0,13.951,8.028,24.479,19.347,24.479c11.055,0,19.346-10.397,19.346-24.742c0-10.792-5.396-24.479-19.083-24.479
		C228.559,240.662,222.636,253.296,222.636,265.403z"/>
</g>
<g>
	<path fill="#F58220" d="M151.438,403.195c0.263-4.343,0.526-10.792,0.526-16.451v-76.99h11.449v40.009h0.264
		c4.08-7.106,11.45-11.713,21.715-11.713c15.793,0,26.979,13.161,26.849,32.507c0,22.769-14.346,34.086-28.56,34.086
		c-9.212,0-16.582-3.553-21.32-11.976h-0.395l-0.526,10.528H151.438z M163.414,377.663c0,1.448,0.264,2.896,0.527,4.212
		c2.237,8.028,8.949,13.556,17.372,13.556c12.107,0,19.346-9.871,19.346-24.479c0-12.766-6.58-23.688-18.951-23.688
		c-7.896,0-15.267,5.396-17.636,14.213c-0.263,1.316-0.658,2.896-0.658,4.738V377.663z"/>
	<path fill="#F58220" d="M277.91,370.82c0,23.558-16.319,33.822-31.717,33.822c-17.241,0-30.533-12.634-30.533-32.77
		c0-21.32,13.95-33.823,31.586-33.823C265.539,338.05,277.91,351.342,277.91,370.82z M227.373,371.478
		c0,13.951,8.028,24.479,19.347,24.479c11.055,0,19.346-10.397,19.346-24.742c0-10.792-5.396-24.479-19.083-24.479
		C233.295,346.736,227.373,359.37,227.373,371.478z"/>
	<path fill="#F58220" d="M286.068,359.37c0-7.502-0.132-13.95-0.526-19.873h10.134L296.07,352h0.526
		c2.896-8.555,9.871-13.95,17.636-13.95c1.315,0,2.237,0.132,3.29,0.395v10.924c-1.185-0.264-2.369-0.395-3.948-0.395
		c-8.16,0-13.95,6.186-15.529,14.871c-0.264,1.579-0.527,3.422-0.527,5.396v33.955h-11.449V359.37z"/>
	<path fill="#F58220" d="M377.666,309.754v76.99c0,5.659,0.132,12.108,0.526,16.451h-10.397l-0.526-11.055h-0.263
		c-3.554,7.106-11.318,12.502-21.715,12.502c-15.398,0-27.243-13.028-27.243-32.375c-0.132-21.188,13.029-34.218,28.559-34.218
		c9.739,0,16.319,4.606,19.215,9.739h0.264v-38.035H377.666z M366.084,365.424c0-1.447-0.132-3.422-0.527-4.869
		c-1.71-7.37-8.027-13.424-16.714-13.424c-11.976,0-19.083,10.528-19.083,24.61c0,12.897,6.317,23.558,18.82,23.558
		c7.765,0,14.871-5.133,16.977-13.818c0.396-1.58,0.527-3.159,0.527-5.001V365.424z"/>
	<path fill="#F58220" d="M396.747,373.452c0.264,15.661,10.266,22.11,21.847,22.11c8.292,0,13.293-1.448,17.636-3.291l1.975,8.292
		c-4.08,1.842-11.056,3.948-21.189,3.948c-19.609,0-31.322-12.897-31.322-32.112s11.318-34.35,29.875-34.35
		c20.794,0,26.321,18.293,26.321,30.007c0,2.368-0.264,4.211-0.395,5.396H396.747z M430.702,365.161
		c0.132-7.37-3.027-18.82-16.056-18.82c-11.714,0-16.846,10.792-17.768,18.82H430.702z"/>
	<path fill="#F58220" d="M449.784,359.37c0-7.502-0.132-13.95-0.526-19.873h10.134L459.786,352h0.526
		c2.896-8.555,9.871-13.95,17.636-13.95c1.315,0,2.237,0.132,3.29,0.395v10.924c-1.185-0.264-2.369-0.395-3.948-0.395
		c-8.16,0-13.95,6.186-15.529,14.871c-0.264,1.579-0.526,3.422-0.526,5.396v33.955h-11.45V359.37z"/>
	<path fill="#F58220" d="M484.791,391.351c3.422,2.237,9.476,4.606,15.267,4.606c8.423,0,12.37-4.212,12.37-9.476
		c0-5.527-3.29-8.555-11.844-11.713c-11.45-4.08-16.846-10.397-16.846-18.03c0-10.266,8.291-18.688,21.978-18.688
		c6.449,0,12.108,1.843,15.662,3.948l-2.896,8.423c-2.501-1.579-7.107-3.685-13.029-3.685c-6.844,0-10.66,3.948-10.66,8.686
		c0,5.265,3.816,7.633,12.107,10.792c11.056,4.211,16.715,9.739,16.715,19.215c0,11.187-8.687,19.083-23.821,19.083
		c-6.976,0-13.424-1.711-17.898-4.344L484.791,391.351z"/>
</g>
<g>
	<path fill="#949699" d="M3.343,0.862h14.062v48.262h0.319c2.237-3.995,5.753-7.511,10.068-9.908
		c4.154-2.397,9.108-3.995,14.382-3.995c10.388,0,27.008,6.393,27.008,33.08v46.023H55.12V69.898
		c0-12.465-4.634-23.012-17.897-23.012c-9.109,0-16.301,6.392-18.857,14.062c-0.799,1.918-0.959,3.995-0.959,6.712v46.663H3.343
		V0.862z"/>
	<path fill="#949699" d="M97.149,15.245c0.159,4.794-3.356,8.629-8.949,8.629c-4.954,0-8.47-3.835-8.47-8.629
		c0-4.954,3.675-8.789,8.789-8.789C93.792,6.456,97.149,10.291,97.149,15.245z M81.488,114.324V36.979H95.55v77.346H81.488z"/>
</g>
</svg>
