<?xml version="1.0" encoding="utf-8"?>
<!-- Generator: Adobe Illustrator 16.0.0, SVG Export Plug-In . SVG Version: 6.00 Build 0)  -->
<!DOCTYPE svg PUBLIC "-//W3C//DTD SVG 1.1//EN" "http://www.w3.org/Graphics/SVG/1.1/DTD/svg11.dtd">
<svg version="1.1" id="Layer_1" xmlns="http://www.w3.org/2000/svg" xmlns:xlink="http://www.w3.org/1999/xlink" x="0px" y="0px"
	 width="1192.9px" height="432.817px" viewBox="0 0 1192.9 432.817" enable-background="new 0 0 1192.9 432.817"
	 xml:space="preserve">
<g>
	<path fill="#231F20" d="M868.026,149.63l-1.191-10.385h-0.512c-4.596,6.469-13.449,12.258-25.195,12.258
		c-16.684,0-25.197-11.747-25.197-23.664c0-19.918,17.707-30.813,49.541-30.644v-1.702c0-6.81-1.873-19.067-18.727-19.067
		c-7.66,0-15.662,2.383-21.449,6.129l-3.406-9.874c6.811-4.427,16.684-7.32,27.068-7.32c25.197,0,31.326,17.194,31.326,33.708
		v30.813c0,7.15,0.34,14.13,1.361,19.748H868.026z M865.813,107.58c-16.344-0.341-34.9,2.554-34.9,18.557
		c0,9.703,6.469,14.3,14.131,14.3c10.725,0,17.533-6.81,19.918-13.789c0.51-1.532,0.852-3.235,0.852-4.767V107.58z"/>
	<path fill="#231F20" d="M894.409,92.939c0-9.704-0.17-18.046-0.68-25.707h13.107l0.512,16.173h0.68
		c3.746-11.065,12.77-18.045,22.812-18.045c1.703,0,2.895,0.17,4.256,0.511v14.13c-1.531-0.341-3.064-0.511-5.105-0.511
		c-10.557,0-18.047,8.001-20.09,19.237c-0.34,2.043-0.68,4.426-0.68,6.979v43.923h-14.812V92.939z"/>
	<path fill="#231F20" d="M961.823,44.08c0.17,5.106-3.574,9.192-9.533,9.192c-5.277,0-9.023-4.086-9.023-9.192
		c0-5.278,3.916-9.363,9.363-9.363C958.249,34.717,961.823,38.802,961.823,44.08z M945.139,149.63V67.232h14.982v82.397H945.139z"/>
	<path fill="#231F20" d="M1047.624,107.75c0,30.474-21.111,43.753-41.029,43.753c-22.301,0-39.496-16.344-39.496-42.391
		c0-27.579,18.045-43.752,40.857-43.752C1031.62,65.36,1047.624,82.555,1047.624,107.75z M982.25,108.602
		c0,18.046,10.385,31.665,25.025,31.665c14.299,0,25.025-13.449,25.025-32.006c0-13.96-6.98-31.665-24.686-31.665
		S982.25,92.939,982.25,108.602z"/>
	<path fill="#231F20" d="M1125.42,127.158c0,8.512,0.17,16.003,0.682,22.472h-13.279l-0.852-13.449h-0.34
		c-3.916,6.64-12.598,15.322-27.238,15.322c-12.939,0-28.432-7.15-28.432-36.092V67.232h14.982v45.625
		c0,15.662,4.766,26.218,18.385,26.218c10.045,0,17.025-6.98,19.748-13.62c0.852-2.213,1.363-4.937,1.363-7.66V67.232h14.98V127.158
		z"/>
	<path fill="#231F20" d="M1138.014,134.308c4.428,2.895,12.258,5.959,19.748,5.959c10.896,0,16.004-5.448,16.004-12.258
		c0-7.149-4.256-11.065-15.322-15.151c-14.811-5.277-21.791-13.449-21.791-23.323c0-13.278,10.725-24.174,28.43-24.174
		c8.342,0,15.662,2.383,20.26,5.106l-3.746,10.896c-3.234-2.043-9.193-4.767-16.854-4.767c-8.854,0-13.789,5.107-13.789,11.236
		c0,6.81,4.936,9.874,15.662,13.96c14.301,5.447,21.621,12.598,21.621,24.855c0,14.471-11.236,24.685-30.814,24.685
		c-9.023,0-17.365-2.213-23.152-5.618L1138.014,134.308z"/>
</g>
<g>
	<path fill="#231F20" d="M602.114,288.372c0.34-5.618,0.682-13.96,0.682-21.28V167.5h14.811v51.754h0.34
		c5.277-9.193,14.812-15.151,28.09-15.151c20.43,0,34.9,17.023,34.73,42.05c0,29.451-18.557,44.093-36.943,44.093
		c-11.916,0-21.449-4.597-27.578-15.492h-0.512l-0.68,13.619H602.114z M617.606,255.345c0,1.873,0.34,3.746,0.682,5.448
		c2.893,10.385,11.576,17.535,22.471,17.535c15.662,0,25.025-12.769,25.025-31.665c0-16.514-8.512-30.644-24.514-30.644
		c-10.215,0-19.748,6.979-22.812,18.386c-0.342,1.702-0.852,3.745-0.852,6.129V255.345z"/>
	<path fill="#231F20" d="M689.614,231.682c0-9.704-0.17-18.046-0.682-25.707h13.109l0.51,16.173h0.682
		c3.744-11.065,12.768-18.045,22.812-18.045c1.701,0,2.895,0.17,4.256,0.511v14.13c-1.533-0.341-3.064-0.511-5.107-0.511
		c-10.555,0-18.045,8.001-20.088,19.237c-0.342,2.043-0.682,4.426-0.682,6.979v43.923h-14.811V231.682z"/>
	<path fill="#231F20" d="M787.67,288.372l-1.191-10.385h-0.512c-4.596,6.469-13.449,12.258-25.195,12.258
		c-16.684,0-25.197-11.747-25.197-23.664c0-19.918,17.707-30.813,49.541-30.644v-1.702c0-6.81-1.873-19.067-18.727-19.067
		c-7.66,0-15.662,2.383-21.449,6.129l-3.406-9.874c6.811-4.427,16.684-7.32,27.068-7.32c25.197,0,31.326,17.194,31.326,33.708
		v30.813c0,7.15,0.34,14.13,1.361,19.748H787.67z M785.458,246.322c-16.344-0.341-34.9,2.554-34.9,18.557
		c0,9.703,6.469,14.3,14.131,14.3c10.725,0,17.533-6.81,19.918-13.789c0.51-1.532,0.852-3.235,0.852-4.767V246.322z"/>
	<path fill="#231F20" d="M817.459,228.276c0-8.512-0.17-15.492-0.682-22.302h13.279l0.852,13.619h0.34
		c4.086-7.831,13.619-15.491,27.238-15.491c11.406,0,29.111,6.81,29.111,35.069v49.2h-14.98v-47.498
		c0-13.278-4.938-24.344-19.066-24.344c-9.875,0-17.535,6.979-20.09,15.321c-0.682,1.873-1.021,4.427-1.021,6.98v49.54h-14.98
		V228.276z"/>
	<path fill="#231F20" d="M972.885,167.5v99.592c0,7.32,0.17,15.662,0.682,21.28h-13.449l-0.682-14.301h-0.34
		c-4.596,9.193-14.641,16.174-28.09,16.174c-19.918,0-35.24-16.854-35.24-41.88c-0.17-27.409,16.854-44.263,36.943-44.263
		c12.598,0,21.109,5.958,24.855,12.598h0.34v-49.2H972.885z M957.905,239.513c0-1.873-0.17-4.427-0.682-6.299
		c-2.213-9.534-10.385-17.365-21.621-17.365c-15.492,0-24.684,13.619-24.684,31.836c0,16.684,8.17,30.473,24.344,30.473
		c10.045,0,19.238-6.639,21.961-17.875c0.512-2.043,0.682-4.086,0.682-6.47V239.513z"/>
	<path fill="#231F20" d="M1004.377,182.822c0.17,5.106-3.576,9.192-9.533,9.192c-5.277,0-9.023-4.086-9.023-9.192
		c0-5.278,3.916-9.363,9.363-9.363C1000.801,173.459,1004.377,177.544,1004.377,182.822z M987.694,288.372v-82.397h14.98v82.397
		H987.694z"/>
	<path fill="#231F20" d="M1017.485,228.276c0-8.512-0.17-15.492-0.682-22.302h13.279l0.852,13.619h0.34
		c4.086-7.831,13.619-15.491,27.238-15.491c11.406,0,29.111,6.81,29.111,35.069v49.2h-14.98v-47.498
		c0-13.278-4.938-24.344-19.066-24.344c-9.875,0-17.535,6.979-20.09,15.321c-0.682,1.873-1.021,4.427-1.021,6.98v49.54h-14.98
		V228.276z"/>
	<path fill="#231F20" d="M1172.741,205.975c-0.34,5.959-0.682,12.598-0.682,22.643v47.838c0,18.896-3.744,30.474-11.746,37.624
		c-8.002,7.49-19.578,9.874-29.963,9.874c-9.873,0-20.77-2.384-27.408-6.811l3.744-11.406c5.449,3.405,13.961,6.47,24.176,6.47
		c15.322,0,26.557-8.001,26.557-28.771v-9.192h-0.34c-4.596,7.661-13.449,13.789-26.217,13.789c-20.43,0-35.07-17.364-35.07-40.177
		c0-27.92,18.217-43.752,37.113-43.752c14.301,0,22.131,7.49,25.707,14.3h0.34l0.682-12.428H1172.741z M1157.249,238.491
		c0-2.554-0.17-4.767-0.852-6.81c-2.723-8.683-10.043-15.833-20.939-15.833c-14.301,0-24.514,12.088-24.514,31.154
		c0,16.173,8.17,29.622,24.344,29.622c9.193,0,17.535-5.788,20.77-15.321c0.852-2.554,1.191-5.448,1.191-8.002V238.491z"/>
</g>
<g>
	<path fill="#231F20" d="M10.385,411.763c4.427,2.895,12.258,5.959,19.748,5.959c10.896,0,16.003-5.448,16.003-12.258
		c0-7.149-4.256-11.065-15.322-15.151c-14.811-5.277-21.791-13.449-21.791-23.323c0-13.278,10.726-24.174,28.431-24.174
		c8.342,0,15.662,2.383,20.259,5.106l-3.745,10.896c-3.234-2.043-9.193-4.767-16.854-4.767c-8.854,0-13.79,5.107-13.79,11.236
		c0,6.81,4.937,9.874,15.662,13.96c14.301,5.447,21.621,12.598,21.621,24.855c0,14.471-11.236,24.685-30.814,24.685
		c-9.022,0-17.364-2.213-23.152-5.618L10.385,411.763z"/>
	<path fill="#231F20" d="M76.437,388.61c0.341,20.259,13.279,28.601,28.261,28.601c10.725,0,17.194-1.873,22.812-4.256l2.554,10.725
		c-5.277,2.384-14.3,5.107-27.408,5.107c-25.366,0-40.519-16.684-40.519-41.539s14.642-44.433,38.646-44.433
		c26.898,0,34.049,23.663,34.049,38.814c0,3.064-0.341,5.448-0.511,6.98H76.437z M120.359,377.885
		c0.17-9.533-3.916-24.345-20.77-24.345c-15.152,0-21.791,13.96-22.983,24.345H120.359z"/>
	<path fill="#231F20" d="M141.636,370.395c0-9.704-0.17-18.046-0.681-25.707h13.108l0.511,16.173h0.681
		c3.745-11.065,12.769-18.045,22.812-18.045c1.702,0,2.895,0.17,4.256,0.511v14.13c-1.532-0.341-3.064-0.511-5.106-0.511
		c-10.556,0-18.046,8.001-20.089,19.237c-0.341,2.043-0.681,4.426-0.681,6.979v43.923h-14.812V370.395z"/>
	<path fill="#231F20" d="M212.453,321.535c0.17,5.106-3.575,9.192-9.533,9.192c-5.277,0-9.023-4.086-9.023-9.192
		c0-5.278,3.916-9.363,9.363-9.363C208.878,312.172,212.453,316.257,212.453,321.535z M195.77,427.085v-82.397h14.981v82.397H195.77
		z"/>
	<path fill="#231F20" d="M298.424,385.205c0,30.474-21.11,43.753-41.028,43.753c-22.302,0-39.497-16.344-39.497-42.391
		c0-27.579,18.046-43.752,40.858-43.752C282.421,342.815,298.424,360.01,298.424,385.205z M233.051,386.057
		c0,18.046,10.385,31.665,25.025,31.665c14.3,0,25.025-13.449,25.025-32.006c0-13.96-6.979-31.665-24.685-31.665
		C240.711,354.051,233.051,370.395,233.051,386.057z"/>
	<path fill="#231F20" d="M377.924,404.613c0,8.512,0.17,16.003,0.681,22.472h-13.278l-0.852-13.449h-0.341
		c-3.915,6.64-12.598,15.322-27.238,15.322c-12.938,0-28.431-7.15-28.431-36.092v-48.179h14.981v45.625
		c0,15.662,4.767,26.218,18.386,26.218c10.045,0,17.024-6.98,19.748-13.62c0.852-2.213,1.362-4.937,1.362-7.66v-50.562h14.981
		V404.613z"/>
	<path fill="#231F20" d="M392.22,411.763c4.427,2.895,12.258,5.959,19.748,5.959c10.896,0,16.003-5.448,16.003-12.258
		c0-7.149-4.256-11.065-15.322-15.151c-14.811-5.277-21.791-13.449-21.791-23.323c0-13.278,10.726-24.174,28.431-24.174
		c8.342,0,15.662,2.383,20.259,5.106l-3.745,10.896c-3.234-2.043-9.193-4.767-16.854-4.767c-8.854,0-13.79,5.107-13.79,11.236
		c0,6.81,4.937,9.874,15.662,13.96c14.301,5.447,21.621,12.598,21.621,24.855c0,14.471-11.236,24.685-30.814,24.685
		c-9.022,0-17.364-2.213-23.152-5.618L392.22,411.763z"/>
	<path fill="#231F20" d="M454.695,427.085c0.34-5.618,0.681-13.96,0.681-21.28v-99.592h14.812v51.754h0.34
		c5.277-9.193,14.812-15.151,28.09-15.151c20.43,0,34.9,17.023,34.729,42.05c0,29.451-18.557,44.093-36.942,44.093
		c-11.917,0-21.45-4.597-27.579-15.492h-0.511l-0.681,13.619H454.695z M470.188,394.058c0,1.873,0.34,3.746,0.681,5.448
		c2.894,10.385,11.576,17.535,22.472,17.535c15.662,0,25.025-12.769,25.025-31.665c0-16.514-8.512-30.644-24.515-30.644
		c-10.215,0-19.748,6.979-22.812,18.386c-0.341,1.702-0.851,3.745-0.851,6.129V394.058z"/>
	<path fill="#231F20" d="M609.44,404.613c0,8.512,0.17,16.003,0.68,22.472h-13.277l-0.852-13.449h-0.342
		c-3.914,6.64-12.598,15.322-27.238,15.322c-12.938,0-28.43-7.15-28.43-36.092v-48.179h14.981v45.625
		c0,15.662,4.767,26.218,18.386,26.218c10.045,0,17.023-6.98,19.748-13.62c0.852-2.213,1.361-4.937,1.361-7.66v-50.562h14.982
		V404.613z"/>
	<path fill="#231F20" d="M620.331,411.763c4.428,2.895,12.258,5.959,19.748,5.959c10.896,0,16.004-5.448,16.004-12.258
		c0-7.149-4.256-11.065-15.322-15.151c-14.811-5.277-21.791-13.449-21.791-23.323c0-13.278,10.725-24.174,28.43-24.174
		c8.342,0,15.662,2.383,20.26,5.106l-3.746,10.896c-3.234-2.043-9.193-4.767-16.854-4.767c-8.854,0-13.789,5.107-13.789,11.236
		c0,6.81,4.936,9.874,15.662,13.96c14.301,5.447,21.621,12.598,21.621,24.855c0,14.471-11.236,24.685-30.814,24.685
		c-9.023,0-17.365-2.213-23.152-5.618L620.331,411.763z"/>
	<path fill="#231F20" d="M694.725,321.535c0.17,5.106-3.576,9.192-9.533,9.192c-5.277,0-9.023-4.086-9.023-9.192
		c0-5.278,3.916-9.363,9.363-9.363C691.149,312.172,694.725,316.257,694.725,321.535z M678.042,427.085v-82.397h14.98v82.397
		H678.042z"/>
	<path fill="#231F20" d="M706.129,366.989c0-8.512-0.17-15.492-0.682-22.302h13.279l0.852,13.619h0.34
		c4.086-7.831,13.619-15.491,27.238-15.491c11.406,0,29.111,6.81,29.111,35.069v49.2h-14.98v-47.498
		c0-13.278-4.938-24.344-19.066-24.344c-9.875,0-17.535,6.979-20.09,15.321c-0.682,1.873-1.021,4.427-1.021,6.98v49.54h-14.98
		V366.989z"/>
	<path fill="#231F20" d="M797.206,388.61c0.34,20.259,13.279,28.601,28.26,28.601c10.725,0,17.195-1.873,22.812-4.256l2.553,10.725
		c-5.277,2.384-14.299,5.107-27.408,5.107c-25.365,0-40.518-16.684-40.518-41.539s14.641-44.433,38.645-44.433
		c26.898,0,34.049,23.663,34.049,38.814c0,3.064-0.34,5.448-0.51,6.98H797.206z M841.127,377.885
		c0.17-9.533-3.916-24.345-20.77-24.345c-15.152,0-21.791,13.96-22.982,24.345H841.127z"/>
	<path fill="#231F20" d="M860.36,411.763c4.428,2.895,12.258,5.959,19.748,5.959c10.896,0,16.004-5.448,16.004-12.258
		c0-7.149-4.256-11.065-15.322-15.151c-14.811-5.277-21.791-13.449-21.791-23.323c0-13.278,10.725-24.174,28.43-24.174
		c8.342,0,15.662,2.383,20.26,5.106l-3.746,10.896c-3.234-2.043-9.193-4.767-16.854-4.767c-8.854,0-13.789,5.107-13.789,11.236
		c0,6.81,4.936,9.874,15.662,13.96c14.301,5.447,21.621,12.598,21.621,24.855c0,14.471-11.236,24.685-30.814,24.685
		c-9.023,0-17.365-2.213-23.152-5.618L860.36,411.763z"/>
	<path fill="#231F20" d="M916.028,411.763c4.426,2.895,12.258,5.959,19.748,5.959c10.895,0,16.002-5.448,16.002-12.258
		c0-7.149-4.256-11.065-15.322-15.151c-14.811-5.277-21.791-13.449-21.791-23.323c0-13.278,10.727-24.174,28.432-24.174
		c8.342,0,15.662,2.383,20.258,5.106l-3.744,10.896c-3.234-2.043-9.193-4.767-16.854-4.767c-8.854,0-13.791,5.107-13.791,11.236
		c0,6.81,4.938,9.874,15.662,13.96c14.301,5.447,21.621,12.598,21.621,24.855c0,14.471-11.236,24.685-30.814,24.685
		c-9.021,0-17.363-2.213-23.152-5.618L916.028,411.763z"/>
</g>
<g>
	<path fill="#FFFFFF" d="M643.762,7.359H662v62.588h0.414c2.902-5.182,7.461-9.741,13.057-12.85
		c5.389-3.108,11.812-5.181,18.652-5.181c13.471,0,35.023,8.289,35.023,42.899v59.687h-18.236V96.889
		c0-16.165-6.012-29.843-23.213-29.843c-11.812,0-21.139,8.289-24.453,18.237c-1.037,2.487-1.244,5.181-1.244,8.704v60.516h-18.238
		V7.359z"/>
	<path fill="#FFFFFF" d="M765.62,26.011c0.209,6.218-4.352,11.191-11.605,11.191c-6.424,0-10.982-4.974-10.982-11.191
		c0-6.424,4.766-11.398,11.398-11.398C761.268,14.612,765.62,19.587,765.62,26.011z M745.311,154.503V54.196h18.236v100.307H745.311
		z"/>
</g>
<g>
	<path fill="#231F20" d="M784.62,30.151h15.057V151.63H784.62V30.151z"/>
</g>
</svg>
