<?xml version="1.0" encoding="utf-8"?>
<!-- Generator: Adobe Illustrator 16.0.0, SVG Export Plug-In . SVG Version: 6.00 Build 0)  -->
<!DOCTYPE svg PUBLIC "-//W3C//DTD SVG 1.1//EN" "http://www.w3.org/Graphics/SVG/1.1/DTD/svg11.dtd">
<svg version="1.1" id="Layer_1" xmlns="http://www.w3.org/2000/svg" xmlns:xlink="http://www.w3.org/1999/xlink" x="0px" y="0px"
	 width="956px" height="368px" viewBox="0 0 956 368" enable-background="new 0 0 956 368" xml:space="preserve">
<g>
	<rect y="297" fill="#231F20" width="956" height="71"/>
	<rect y="85" fill="#231F20" width="956" height="71"/>
	<rect fill="#231F20" width="956" height="74"/>
	<g>
		<path fill="#F58220" d="M742.119,304.459h14.888v53.686h-14.888V304.459z"/>
		<path fill="#F58220" d="M773.624,341.979c0.375,4.436,2.933,7.595,7.594,7.595c2.405,0,5.037-0.902,6.241-2.782h13.91
			c-3.009,8.421-11.203,12.33-20.076,12.33c-12.481,0-21.881-7.367-21.881-20.376c0-11.353,8.272-20.602,20.603-20.602
			c15.489,0,22.181,8.646,22.181,23.835H773.624z M787.91,334.234c0-3.609-2.707-6.541-6.542-6.541c-4.437,0-6.992,2.33-7.669,6.541
			H787.91z"/>
		<path fill="#F58220" d="M829.566,358.145h-17.595l-12.782-39.023h15.715l6.092,23.76h0.15l6.164-23.76h15.188L829.566,358.145z"/>
		<path fill="#F58220" d="M852.727,341.979c0.375,4.436,2.933,7.595,7.594,7.595c2.406,0,5.037-0.902,6.24-2.782h13.911
			c-3.009,8.421-11.203,12.33-20.076,12.33c-12.481,0-21.881-7.367-21.881-20.376c0-11.353,8.272-20.602,20.603-20.602
			c15.489,0,22.182,8.646,22.182,23.835H852.727z M867.013,334.234c0-3.609-2.707-6.541-6.542-6.541
			c-4.437,0-6.992,2.33-7.669,6.541H867.013z"/>
		<path fill="#F58220" d="M883.556,304.459h14.888v53.686h-14.888V304.459z"/>
	</g>
	<g>
		<path fill="#F58220" d="M245.466,6.41c16.316,0,27.219,11.729,27.219,28.12s-10.902,28.121-27.219,28.121
			c-16.317,0-27.219-11.729-27.219-28.121S229.148,6.41,245.466,6.41z M245.466,49.268c4.211,0,10.678-2.782,10.678-14.737
			s-6.467-14.737-10.678-14.737s-10.677,2.782-10.677,14.737S241.255,49.268,245.466,49.268z"/>
		<path fill="#F58220" d="M315.621,61.373h-14.362v-4.962h-0.15c-2.782,3.909-6.767,5.939-12.707,5.939
			c-6.993,0-13.384-4.285-13.384-13.233V22.351h14.888v20.45c0,4.512,0.526,7.67,4.888,7.67c2.557,0,5.94-1.277,5.94-7.52V22.351
			h14.888V61.373z"/>
		<path fill="#F58220" d="M319.306,22.351h14.286v6.24h0.15c2.406-4.662,5.563-7.218,10.978-7.218c1.504,0,2.933,0.226,4.36,0.601
			v13.158c-1.504-0.526-2.856-0.977-5.864-0.977c-5.865,0-9.022,3.458-9.022,11.805v15.413h-14.888V22.351z"/>
		<path fill="#F58220" d="M373.217,45.208c0.376,4.436,2.933,7.594,7.595,7.594c2.405,0,5.037-0.902,6.24-2.782h13.911
			c-3.009,8.421-11.203,12.331-20.077,12.331c-12.48,0-21.879-7.368-21.879-20.376c0-11.354,8.271-20.602,20.602-20.602
			c15.489,0,22.181,8.646,22.181,23.835H373.217z M387.503,37.463c0-3.608-2.706-6.541-6.541-6.541
			c-4.437,0-6.993,2.331-7.669,6.541H387.503z"/>
		<path fill="#F58220" d="M410.438,40.847l-12.256-18.496h16.392l4.285,7.744l4.361-7.744h15.94l-12.256,18.496l13.834,20.526
			h-16.391l-5.714-9.55l-5.49,9.55h-16.315L410.438,40.847z"/>
		<path fill="#F58220" d="M442.996,22.351h14.362v4.285h0.15c1.879-2.481,4.134-5.263,11.428-5.263
			c11.053,0,16.392,10.902,16.392,20.677c0,9.173-3.534,20.301-16.617,20.301c-4.437,0-8.42-1.954-10.677-5.264h-0.15v16.918
			h-14.888V22.351z M463.899,51.523c5.338,0,6.541-5.038,6.541-9.624c0-4.661-1.203-9.7-6.541-9.7c-5.339,0-6.541,5.039-6.541,9.7
			C457.358,46.485,458.561,51.523,463.899,51.523z"/>
		<path fill="#F58220" d="M502.398,45.208c0.376,4.436,2.933,7.594,7.595,7.594c2.405,0,5.037-0.902,6.24-2.782h13.911
			c-3.009,8.421-11.203,12.331-20.077,12.331c-12.48,0-21.88-7.368-21.88-20.376c0-11.354,8.271-20.602,20.603-20.602
			c15.489,0,22.181,8.646,22.181,23.835H502.398z M516.685,37.463c0-3.608-2.706-6.541-6.541-6.541
			c-4.437,0-6.992,2.331-7.669,6.541H516.685z"/>
		<path fill="#F58220" d="M533.829,22.351h14.286v6.24h0.15c2.406-4.662,5.563-7.218,10.978-7.218c1.504,0,2.933,0.226,4.361,0.601
			v13.158c-1.505-0.526-2.857-0.977-5.865-0.977c-5.865,0-9.022,3.458-9.022,11.805v15.413h-14.888V22.351z"/>
		<path fill="#F58220" d="M581.725,18.139h-14.887V7.688h14.887V18.139z M566.838,22.351h14.887v39.022h-14.887V22.351z"/>
		<path fill="#F58220" d="M598.342,45.208c0.376,4.436,2.933,7.594,7.595,7.594c2.405,0,5.037-0.902,6.24-2.782h13.91
			c-3.008,8.421-11.202,12.331-20.076,12.331c-12.48,0-21.879-7.368-21.879-20.376c0-11.354,8.271-20.602,20.601-20.602
			c15.49,0,22.182,8.646,22.182,23.835H598.342z M612.628,37.463c0-3.608-2.706-6.541-6.541-6.541c-4.437,0-6.993,2.331-7.669,6.541
			H612.628z"/>
		<path fill="#F58220" d="M628.721,22.351h14.361v4.962h0.15c2.782-3.91,6.767-5.939,12.707-5.939
			c6.993,0,13.384,4.285,13.384,13.232v26.768h-14.888V40.922c0-4.512-0.527-7.669-4.888-7.669c-2.556,0-5.94,1.277-5.94,7.519
			v20.602h-14.887V22.351z"/>
		<path fill="#F58220" d="M698.121,37.162c-0.15-1.579-0.676-2.857-1.653-3.684c-0.902-0.828-2.181-1.279-3.759-1.279
			c-5.715,0-6.543,4.963-6.543,9.7c0,4.736,0.828,9.624,6.543,9.624c3.232,0,5.488-2.631,5.789-5.714h14.21
			c-0.676,5.263-3.157,9.397-6.767,12.256c-3.533,2.782-8.27,4.285-13.533,4.285c-11.73,0-21.128-8.12-21.128-20.451
			s9.397-20.526,21.128-20.526c10.225,0,18.947,5.037,19.849,15.789H698.121z"/>
		<path fill="#F58220" d="M728.2,45.208c0.375,4.436,2.933,7.594,7.594,7.594c2.405,0,5.037-0.902,6.241-2.782h13.91
			c-3.008,8.421-11.203,12.331-20.076,12.331c-12.481,0-21.881-7.368-21.881-20.376c0-11.354,8.272-20.602,20.603-20.602
			c15.489,0,22.181,8.646,22.181,23.835H728.2z M742.486,37.463c0-3.608-2.707-6.541-6.542-6.541c-4.437,0-6.992,2.331-7.669,6.541
			H742.486z"/>
		<path fill="#F58220" d="M811.963,52.651c0,2.933,0.15,6.24,1.805,8.722H798.58c-0.376-1.053-0.603-2.632-0.526-3.685h-0.15
			c-3.159,3.61-7.745,4.662-12.557,4.662c-7.52,0-13.761-3.609-13.761-11.805c0-12.331,14.437-11.881,22.031-13.308
			c2.029-0.377,4.06-0.979,4.06-3.46c0-2.632-2.481-3.608-4.887-3.608c-4.587,0-5.489,2.33-5.563,3.985h-13.835
			c0.225-5.49,2.933-8.722,6.767-10.527c3.76-1.805,8.723-2.255,13.309-2.255c18.646,0,18.496,7.744,18.496,15.264V52.651z
			 M797.677,43.854c-1.804,0.903-3.833,1.429-5.864,1.88c-3.309,0.752-5.038,1.579-5.038,4.211c0,1.805,1.956,3.609,4.662,3.609
			c3.384,0,6.016-2.03,6.24-6.091V43.854z"/>
		<path fill="#F58220" d="M815.348,22.351h14.362v4.962h0.15c2.782-3.91,6.767-5.939,12.707-5.939
			c6.993,0,13.384,4.285,13.384,13.232v26.768h-14.888V40.922c0-4.512-0.527-7.669-4.888-7.669c-2.557,0-5.94,1.277-5.94,7.519
			v20.602h-14.888V22.351z"/>
		<path fill="#F58220" d="M901.141,61.373h-14.361v-4.286h-0.15c-1.88,2.481-4.135,5.264-11.428,5.264
			c-11.055,0-16.393-10.902-16.393-20.677c0-9.174,3.534-20.301,16.617-20.301c4.437,0,8.421,1.954,10.678,5.263h0.15V7.688h14.887
			V61.373z M880.238,32.199c-5.338,0-6.542,5.039-6.542,9.625c0,4.661,1.204,9.699,6.542,9.699s6.541-5.038,6.541-9.699
			C886.779,37.238,885.576,32.199,880.238,32.199z"/>
	</g>
	<g>
		<path fill="#F58220" d="M348.706,129.364c0.376,4.436,2.933,7.595,7.595,7.595c2.405,0,5.037-0.903,6.24-2.782h13.911
			c-3.009,8.421-11.203,12.33-20.077,12.33c-12.48,0-21.88-7.368-21.88-20.376c0-11.354,8.271-20.603,20.603-20.603
			c15.489,0,22.181,8.647,22.181,23.836H348.706z M362.992,121.619c0-3.608-2.706-6.541-6.541-6.541
			c-4.437,0-6.992,2.331-7.669,6.541H362.992z"/>
		<path fill="#F58220" d="M396.979,106.507h7.971v9.173h-7.971v13.609c0,3.609,0.828,5.188,4.587,5.188
			c1.128,0,2.257-0.076,3.384-0.227v11.279c-3.008,0-6.391,0.451-9.55,0.451c-6.314,0-13.308-0.978-13.308-11.654V115.68h-6.617
			v-9.173h6.617v-11.88h14.887V106.507z"/>
		<path fill="#F58220" d="M408.785,91.845h14.888v18.873h0.15c2.556-3.009,5.865-5.189,12.181-5.189
			c6.993,0,13.385,4.286,13.385,13.234v26.768h-14.888v-20.452c0-4.512-0.527-7.669-4.889-7.669c-2.556,0-5.939,1.278-5.939,7.519
			v20.603h-14.888V91.845z"/>
		<path fill="#F58220" d="M467.812,102.295h-14.888v-10.45h14.888V102.295z M452.924,106.507h14.888v39.023h-14.888V106.507z"/>
		<path fill="#F58220" d="M497.06,121.318c-0.15-1.578-0.676-2.856-1.653-3.684c-0.902-0.827-2.181-1.278-3.759-1.278
			c-5.715,0-6.543,4.962-6.543,9.7c0,4.736,0.828,9.624,6.543,9.624c3.231,0,5.488-2.632,5.789-5.715h14.21
			c-0.676,5.264-3.157,9.398-6.767,12.256c-3.534,2.782-8.271,4.285-13.533,4.285c-11.73,0-21.13-8.12-21.13-20.45
			c0-12.332,9.399-20.528,21.13-20.528c10.225,0,18.947,5.039,19.849,15.79H497.06z"/>
		<path fill="#F58220" d="M537.363,117.86c-0.075-1.278-0.751-2.256-1.729-2.933c-0.901-0.752-2.104-1.127-3.308-1.127
			c-2.106,0-4.512,0.451-4.512,3.007c0,1.128,0.902,1.654,1.729,2.03c2.481,1.053,8.12,1.354,13.082,3.007
			c4.963,1.58,9.324,4.511,9.324,10.903c0,10.826-10.376,13.759-19.85,13.759c-9.174,0-19.248-3.684-19.475-13.759h14.212
			c0.074,1.353,0.676,2.481,1.804,3.459c0.752,0.676,2.18,1.127,3.985,1.127c1.955,0,5.037-0.752,5.037-3.007
			c0-2.257-1.278-2.933-8.195-4.136c-11.354-1.955-15.94-5.564-15.94-12.256c0-9.85,10.602-12.407,18.422-12.407
			c8.421,0,18.571,2.331,18.948,12.332H537.363z"/>
		<path fill="#F58220" d="M606.389,136.809c0,2.932,0.15,6.24,1.805,8.722h-15.188c-0.375-1.054-0.602-2.632-0.525-3.685h-0.15
			c-3.159,3.609-7.745,4.661-12.557,4.661c-7.52,0-13.761-3.608-13.761-11.805c0-12.33,14.437-11.879,22.031-13.308
			c2.029-0.377,4.06-0.979,4.06-3.459c0-2.632-2.481-3.609-4.887-3.609c-4.587,0-5.489,2.331-5.563,3.985h-13.835
			c0.225-5.489,2.933-8.723,6.766-10.526c3.761-1.805,8.724-2.257,13.31-2.257c18.646,0,18.496,7.745,18.496,15.265V136.809z
			 M592.103,128.011c-1.804,0.902-3.834,1.429-5.865,1.88c-3.308,0.752-5.037,1.578-5.037,4.21c0,1.805,1.956,3.61,4.662,3.61
			c3.384,0,6.016-2.03,6.24-6.092V128.011z"/>
		<path fill="#F58220" d="M610.301,106.507h14.286v6.241h0.15c2.406-4.662,5.564-7.22,10.978-7.22c1.505,0,2.933,0.227,4.361,0.603
			v13.158c-1.504-0.526-2.856-0.978-5.865-0.978c-5.865,0-9.022,3.459-9.022,11.805v15.414h-14.888V106.507z"/>
		<path fill="#F58220" d="M654.663,129.364c0.375,4.436,2.933,7.595,7.594,7.595c2.406,0,5.038-0.903,6.241-2.782h13.91
			c-3.008,8.421-11.203,12.33-20.076,12.33c-12.481,0-21.879-7.368-21.879-20.376c0-11.354,8.271-20.603,20.601-20.603
			c15.489,0,22.182,8.647,22.182,23.836H654.663z M668.949,121.619c0-3.608-2.707-6.541-6.541-6.541
			c-4.438,0-6.993,2.331-7.669,6.541H668.949z"/>
		<path fill="#F58220" d="M738.877,136.809c0,2.932,0.15,6.24,1.806,8.722h-15.188c-0.376-1.054-0.602-2.632-0.526-3.685h-0.15
			c-3.159,3.609-7.744,4.661-12.557,4.661c-7.52,0-13.76-3.608-13.76-11.805c0-12.33,14.437-11.879,22.03-13.308
			c2.03-0.377,4.061-0.979,4.061-3.459c0-2.632-2.481-3.609-4.887-3.609c-4.588,0-5.49,2.331-5.564,3.985h-13.835
			c0.225-5.489,2.933-8.723,6.767-10.526c3.76-1.805,8.723-2.257,13.309-2.257c18.646,0,18.496,7.745,18.496,15.265V136.809z
			 M724.592,128.011c-1.805,0.902-3.834,1.429-5.865,1.88c-3.309,0.752-5.037,1.578-5.037,4.21c0,1.805,1.955,3.61,4.661,3.61
			c3.384,0,6.016-2.03,6.241-6.092V128.011z"/>
		<path fill="#F58220" d="M761.21,106.507h7.971v9.173h-7.971v13.609c0,3.609,0.828,5.188,4.587,5.188
			c1.128,0,2.257-0.076,3.384-0.227v11.279c-3.008,0-6.391,0.451-9.55,0.451c-6.314,0-13.308-0.978-13.308-11.654V115.68h-6.617
			v-9.173h6.617v-11.88h14.887V106.507z"/>
		<path fill="#F58220" d="M805.648,106.507h7.971v9.173h-7.971v13.609c0,3.609,0.827,5.188,4.587,5.188
			c1.127,0,2.256-0.076,3.384-0.227v11.279c-3.009,0-6.392,0.451-9.55,0.451c-6.315,0-13.308-0.978-13.308-11.654V115.68h-6.617
			v-9.173h6.617v-11.88h14.887V106.507z"/>
		<path fill="#F58220" d="M817.379,91.845h14.888v18.873h0.15c2.558-3.009,5.865-5.189,12.182-5.189
			c6.993,0,13.384,4.286,13.384,13.234v26.768h-14.888v-20.452c0-4.512-0.527-7.669-4.888-7.669c-2.557,0-5.94,1.278-5.94,7.519
			v20.603h-14.888V91.845z"/>
		<path fill="#F58220" d="M874.15,129.364c0.375,4.436,2.933,7.595,7.594,7.595c2.406,0,5.037-0.903,6.241-2.782h13.91
			c-3.009,8.421-11.203,12.33-20.076,12.33c-12.481,0-21.88-7.368-21.88-20.376c0-11.354,8.271-20.603,20.602-20.603
			c15.489,0,22.182,8.647,22.182,23.836H874.15z M888.437,121.619c0-3.608-2.706-6.541-6.542-6.541
			c-4.437,0-6.992,2.331-7.668,6.541H888.437z"/>
	</g>
	<g>
		<path fill="#F58220" d="M658.379,251.533c0,11.992-3.145,28.874-31.437,28.874c-14.319,0-29.456-3.843-31.55-20.143h22.818
			c0.233,0.583,0.815,1.397,1.28,2.096c1.397,2.096,3.843,4.425,6.753,4.425c7.451,0,9.082-8.849,9.082-13.854v-5.59h-0.233
			c-3.726,5.357-9.313,8.384-16.184,8.384c-17.812,0-25.847-13.272-25.847-29.456c0-15.718,8.965-28.874,26.196-28.874
			c6.753,0,13.156,2.678,15.834,8.849h0.233v-7.336h23.053V251.533z M626.478,240.938c8.499,0,9.431-8.149,9.431-14.902
			c0-6.636-3.26-11.876-10.013-11.876c-6.52,0-9.78,5.59-9.78,11.993C616.115,233.021,618.211,240.938,626.478,240.938z"/>
		<path fill="#F58220" d="M661.754,176.204h23.053v29.224h0.233c3.958-4.656,9.081-8.033,18.86-8.033
			c10.828,0,20.725,6.636,20.725,20.491v41.447h-23.053v-31.667c0-6.986-0.815-11.876-7.568-11.876
			c-3.958,0-9.197,1.979-9.197,11.643v31.9h-23.053V176.204z"/>
		<path fill="#F58220" d="M748.842,234.302c0.582,6.87,4.541,11.759,11.759,11.759c3.726,0,7.801-1.397,9.664-4.308h21.538
			c-4.656,13.039-17.348,19.095-31.085,19.095c-19.327,0-33.88-11.411-33.88-31.552c0-17.58,12.807-31.901,31.9-31.901
			c23.984,0,34.346,13.389,34.346,36.907H748.842z M770.964,222.31c0-5.588-4.192-10.129-10.129-10.129
			c-6.87,0-10.828,3.609-11.876,10.129H770.964z"/>
		<path fill="#F58220" d="M832.319,216.488c-0.116-1.979-1.164-3.492-2.678-4.54c-1.397-1.165-3.26-1.747-5.123-1.747
			c-3.26,0-6.985,0.699-6.985,4.657c0,1.746,1.397,2.562,2.678,3.144c3.843,1.63,12.574,2.096,20.258,4.657
			c7.686,2.445,14.438,6.986,14.438,16.881c0,16.767-16.066,21.308-30.737,21.308c-14.204,0-29.805-5.706-30.154-21.308h22.005
			c0.117,2.097,1.048,3.843,2.794,5.357c1.165,1.048,3.377,1.745,6.171,1.745c3.027,0,7.801-1.164,7.801-4.657
			c0-3.491-1.979-4.539-12.69-6.403c-17.581-3.026-24.683-8.614-24.683-18.978c0-15.252,16.417-19.21,28.524-19.21
			c13.041,0,28.758,3.609,29.339,19.094H832.319z"/>
		<path fill="#F58220" d="M888.67,198.907h12.341v14.204H888.67v21.073c0,5.59,1.28,8.035,7.102,8.035
			c1.747,0,3.492-0.117,5.239-0.35v17.463c-4.657,0-9.896,0.699-14.786,0.699c-9.779,0-20.607-1.514-20.607-18.047v-28.874h-10.245
			v-14.204h10.245v-18.395h23.053V198.907z"/>
	</g>
	<path fill="none" stroke="#F58220" stroke-width="3" stroke-miterlimit="10" d="M490.808,261.053h23.053V229.15
		c0-9.663,5.238-11.642,9.198-11.642c6.752,0,7.566,4.889,7.566,11.874v31.67h23.054v-41.449c0-13.854-9.896-20.491-20.724-20.491
		c-9.779,0-14.904,3.376-18.861,8.033h-0.233v-29.223h-23.053V261.053z"/>
	<path fill="none" stroke="#F58220" stroke-width="3" stroke-miterlimit="10" d="M582.087,177.923h-23.053v16.183h23.053V177.923z
		 M559.034,261.053h23.053v-60.427h-23.053V261.053z"/>
</g>
</svg>
