<?xml version="1.0" encoding="utf-8"?>
<!-- Generator: Adobe Illustrator 16.0.0, SVG Export Plug-In . SVG Version: 6.00 Build 0)  -->
<!DOCTYPE svg PUBLIC "-//W3C//DTD SVG 1.1//EN" "http://www.w3.org/Graphics/SVG/1.1/DTD/svg11.dtd">
<svg version="1.1" id="Layer_1" xmlns="http://www.w3.org/2000/svg" xmlns:xlink="http://www.w3.org/1999/xlink" x="0px" y="0px"
	 width="729.721px" height="381.362px" viewBox="0 0 729.721 381.362" enable-background="new 0 0 729.721 381.362"
	 xml:space="preserve">
<g>
	<path fill="#231F20" d="M10.202,97.699c6.217,3.826,15.304,7.014,24.868,7.014c14.187,0,22.477-7.492,22.477-18.331
		c0-10.043-5.739-15.782-20.245-21.361C19.767,58.804,8.927,49.718,8.927,34.573c0-16.737,13.869-29.172,34.751-29.172
		c10.999,0,18.97,2.551,23.752,5.261L63.604,21.98c-3.508-1.913-10.681-5.102-20.404-5.102c-14.666,0-20.245,8.768-20.245,16.101
		c0,10.043,6.535,14.984,21.36,20.723c18.173,7.015,27.418,15.782,27.418,31.563c0,16.578-12.274,30.925-37.62,30.925
		c-10.361,0-21.68-3.028-27.418-6.854L10.202,97.699z"/>
	<path fill="#231F20" d="M158.609,75.382c0,28.534-19.767,40.969-38.418,40.969c-20.882,0-36.982-15.304-36.982-39.693
		c0-25.824,16.897-40.968,38.258-40.968C143.625,35.689,158.609,51.79,158.609,75.382z M97.396,76.18
		c0,16.896,9.724,29.649,23.433,29.649c13.391,0,23.434-12.593,23.434-29.969c0-13.071-6.536-29.65-23.114-29.65
		C104.569,46.21,97.396,61.514,97.396,76.18z"/>
	<path fill="#231F20" d="M183.791,37.443l16.896,45.591c1.754,5.101,3.667,11.158,4.942,15.781h0.318
		c1.435-4.623,3.029-10.521,4.941-16.101l15.304-45.271h14.825l-21.042,54.995c-10.043,26.462-16.897,40.012-26.462,48.301
		c-6.854,6.058-13.709,8.449-17.216,9.087l-3.508-11.797c3.508-1.115,8.13-3.347,12.274-6.854
		c3.826-3.028,8.608-8.448,11.797-15.622c0.638-1.435,1.115-2.55,1.115-3.348c0-0.797-0.318-1.912-0.956-3.666l-28.534-71.096
		H183.791z"/>
	<path fill="#231F20" d="M314.344,75.382c0,28.534-19.767,40.969-38.418,40.969c-20.882,0-36.982-15.304-36.982-39.693
		c0-25.824,16.897-40.968,38.258-40.968C299.359,35.689,314.344,51.79,314.344,75.382z M253.131,76.18
		c0,16.896,9.724,29.649,23.433,29.649c13.391,0,23.434-12.593,23.434-29.969c0-13.071-6.536-29.65-23.114-29.65
		C260.304,46.21,253.131,61.514,253.131,76.18z"/>
	<path fill="#231F20" d="M387.828,93.555c0,7.971,0.159,14.984,0.638,21.042h-12.434l-0.797-12.594h-0.319
		c-3.666,6.218-11.796,14.348-25.505,14.348c-12.115,0-26.622-6.695-26.622-33.795V37.443h14.028v42.721
		c0,14.666,4.464,24.549,17.216,24.549c9.405,0,15.941-6.535,18.492-12.752c0.797-2.072,1.274-4.623,1.274-7.174V37.443h14.028
		V93.555z"/>
</g>
<g>
	<path fill="#231F20" d="M17.216,153.328l10.202,39.214c2.232,8.608,4.305,16.579,5.739,24.549h0.478
		c1.754-7.811,4.305-16.1,6.855-24.39l12.593-39.373h11.796l11.956,38.576c2.869,9.246,5.101,17.376,6.854,25.187h0.479
		c1.275-7.811,3.348-15.94,5.897-25.026l11-38.736h13.868l-24.868,77.153H77.313l-11.797-36.823
		c-2.71-8.608-4.941-16.26-6.854-25.346h-0.318c-1.913,9.245-4.305,17.216-7.015,25.505l-12.434,36.664H26.143L2.869,153.328H17.216
		z"/>
	<path fill="#231F20" d="M165.303,230.481l-1.116-9.724h-0.478c-4.305,6.058-12.594,11.478-23.593,11.478
		c-15.622,0-23.593-11-23.593-22.158c0-18.65,16.579-28.853,46.388-28.693v-1.595c0-6.376-1.753-17.854-17.534-17.854
		c-7.174,0-14.666,2.231-20.086,5.739l-3.188-9.246c6.377-4.145,15.622-6.854,25.347-6.854c23.592,0,29.331,16.101,29.331,31.562
		v28.854c0,6.695,0.318,13.23,1.275,18.491H165.303z M163.23,191.107c-15.304-0.318-32.679,2.392-32.679,17.376
		c0,9.086,6.058,13.39,13.23,13.39c10.043,0,16.419-6.376,18.651-12.912c0.478-1.435,0.797-3.028,0.797-4.463V191.107z"/>
	<path fill="#231F20" d="M191.602,174.21c0-7.97-0.159-14.506-0.638-20.882h12.434l0.798,12.752h0.318
		c3.826-7.332,12.753-14.506,25.506-14.506c10.68,0,27.259,6.376,27.259,32.838v46.069H243.25v-44.475
		c0-12.435-4.623-22.796-17.854-22.796c-9.246,0-16.419,6.536-18.811,14.347c-0.638,1.754-0.956,4.145-0.956,6.536v46.388h-14.028
		V174.21z"/>
	<path fill="#231F20" d="M268.274,174.21c0-7.97-0.159-14.506-0.638-20.882h12.434l0.798,12.752h0.318
		c3.826-7.332,12.753-14.506,25.506-14.506c10.68,0,27.259,6.376,27.259,32.838v46.069h-14.028v-44.475
		c0-12.435-4.623-22.796-17.854-22.796c-9.246,0-16.419,6.536-18.811,14.347c-0.638,1.754-0.956,4.145-0.956,6.536v46.388h-14.028
		V174.21z"/>
	<path fill="#231F20" d="M391.973,230.481l-1.116-9.724h-0.478c-4.305,6.058-12.594,11.478-23.593,11.478
		c-15.622,0-23.593-11-23.593-22.158c0-18.65,16.579-28.853,46.388-28.693v-1.595c0-6.376-1.753-17.854-17.534-17.854
		c-7.174,0-14.666,2.231-20.086,5.739l-3.188-9.246c6.377-4.145,15.622-6.854,25.347-6.854c23.592,0,29.331,16.101,29.331,31.562
		v28.854c0,6.695,0.318,13.23,1.275,18.491H391.973z M389.9,191.107c-15.304-0.318-32.679,2.392-32.679,17.376
		c0,9.086,6.058,13.39,13.23,13.39c10.043,0,16.419-6.376,18.651-12.912c0.478-1.435,0.797-3.028,0.797-4.463V191.107z"/>
</g>
<g>
	<path fill="#231F20" d="M600.958,153.328c-0.319,5.579-0.638,11.796-0.638,21.201v44.794c0,17.694-3.507,28.534-10.999,35.229
		c-7.492,7.015-18.332,9.246-28.057,9.246c-9.245,0-19.447-2.231-25.664-6.376l3.507-10.681c5.101,3.188,13.071,6.058,22.636,6.058
		c14.347,0,24.868-7.492,24.868-26.94v-8.607h-0.319c-4.304,7.173-12.593,12.912-24.549,12.912
		c-19.129,0-32.838-16.26-32.838-37.621c0-26.143,17.057-40.968,34.751-40.968c13.391,0,20.723,7.014,24.07,13.391h0.319
		l0.638-11.637H600.958z M586.452,183.774c0-2.391-0.16-4.463-0.798-6.376c-2.55-8.13-9.404-14.825-19.606-14.825
		c-13.391,0-22.955,11.318-22.955,29.172c0,15.144,7.651,27.737,22.795,27.737c8.608,0,16.419-5.42,19.448-14.347
		c0.797-2.392,1.116-5.102,1.116-7.492V183.774z"/>
	<path fill="#231F20" d="M622.953,194.455c0.318,18.97,12.434,26.78,26.461,26.78c10.043,0,16.101-1.753,21.361-3.984l2.391,10.042
		c-4.941,2.232-13.39,4.782-25.664,4.782c-23.752,0-37.939-15.622-37.939-38.896s13.709-41.605,36.186-41.605
		c25.187,0,31.882,22.158,31.882,36.345c0,2.87-0.318,5.102-0.479,6.536H622.953z M664.08,184.412
		c0.159-8.927-3.666-22.795-19.448-22.795c-14.187,0-20.404,13.071-21.52,22.795H664.08z"/>
	<path fill="#231F20" d="M704.407,131.17v22.158h20.085v10.68h-20.085v41.605c0,9.565,2.71,14.984,10.521,14.984
		c3.667,0,6.377-0.478,8.13-0.956l0.638,10.521c-2.71,1.115-7.014,1.912-12.434,1.912c-6.536,0-11.796-2.072-15.144-5.897
		c-3.985-4.145-5.42-10.999-5.42-20.086v-42.084h-11.956v-10.68h11.956v-18.492L704.407,131.17z"/>
</g>
<g>
	<path fill="#231F20" d="M222.323,345.977l-0.365-4.743c-1.095-9.852,2.189-20.615,11.311-31.562
		c8.21-9.669,12.771-16.784,12.771-24.993c0-9.305-5.838-15.507-17.331-15.689c-6.567,0-13.865,2.189-18.426,5.655l-4.379-11.493
		c6.021-4.379,16.42-7.298,26.089-7.298c20.979,0,30.466,12.953,30.466,26.818c0,12.405-6.933,21.345-15.689,31.743
		c-8.026,9.486-10.945,17.514-10.398,26.818l0.183,4.743H222.323z M218.31,371.518c0-6.751,4.561-11.494,10.945-11.494
		c6.386,0,10.764,4.743,10.764,11.494c0,6.385-4.195,11.311-10.945,11.311C222.688,382.828,218.31,377.902,218.31,371.518z"/>
</g>
<g>
	<path fill="#949699" d="M34.155,251.834H50.21v55.095h0.364c2.555-4.561,6.568-8.574,11.494-11.311
		c4.743-2.736,10.398-4.561,16.419-4.561c11.858,0,30.831,7.297,30.831,37.764v52.541H93.265v-50.717
		c0-14.229-5.291-26.271-20.433-26.271c-10.399,0-18.608,7.298-21.527,16.055c-0.912,2.188-1.095,4.561-1.095,7.662v53.271H34.155
		V251.834z"/>
	<path fill="#949699" d="M141.427,268.253c0.183,5.474-3.831,9.852-10.217,9.852c-5.655,0-9.669-4.378-9.669-9.852
		c0-5.655,4.196-10.033,10.034-10.033C137.596,258.22,141.427,262.598,141.427,268.253z M123.548,381.362v-88.298h16.055v88.298
		H123.548z"/>
</g>
</svg>
