<?xml version="1.0" encoding="utf-8"?>
<!-- Generator: Adobe Illustrator 16.0.0, SVG Export Plug-In . SVG Version: 6.00 Build 0)  -->
<!DOCTYPE svg PUBLIC "-//W3C//DTD SVG 1.1//EN" "http://www.w3.org/Graphics/SVG/1.1/DTD/svg11.dtd">
<svg version="1.1" id="Layer_1" xmlns="http://www.w3.org/2000/svg" xmlns:xlink="http://www.w3.org/1999/xlink" x="0px" y="0px"
	 width="73.701px" height="73.701px" viewBox="148.649 12.649 73.701 73.701" enable-background="new 148.649 12.649 73.701 73.701"
	 xml:space="preserve">
<path fill="#231F20" d="M207.024,41.103c0.019,0.451,0.026,0.896,0.026,1.358c0,13.819-10.521,29.759-29.759,29.759
	c-5.91,0-11.405-1.736-16.034-4.695c0.818,0.095,1.648,0.14,2.496,0.14c4.9,0,9.402-1.663,12.989-4.479
	c-4.576-0.087-8.438-3.112-9.768-7.261c0.641,0.117,1.296,0.189,1.967,0.189c0.959,0,1.878-0.133,2.751-0.367
	c-4.781-0.961-8.391-5.183-8.391-10.271v-0.112c1.414,0.768,3.028,1.241,4.739,1.304c-2.806-1.883-4.654-5.08-4.654-8.708
	c0-1.926,0.521-3.718,1.425-5.262c5.154,6.333,12.864,10.49,21.554,10.931c-0.182-0.767-0.281-1.56-0.281-2.386
	c0-5.783,4.692-10.463,10.471-10.463c3.001,0,5.722,1.273,7.632,3.303c2.388-0.466,4.627-1.344,6.644-2.537
	c-0.785,2.448-2.437,4.488-4.601,5.796c2.111-0.256,4.13-0.822,6.01-1.652C210.84,37.789,209.06,39.628,207.024,41.103"/>
</svg>
