<?xml version="1.0" encoding="utf-8"?>
<!-- Generator: Adobe Illustrator 16.0.0, SVG Export Plug-In . SVG Version: 6.00 Build 0)  -->
<!DOCTYPE svg PUBLIC "-//W3C//DTD SVG 1.1//EN" "http://www.w3.org/Graphics/SVG/1.1/DTD/svg11.dtd">
<svg version="1.1" id="Capa_1" xmlns="http://www.w3.org/2000/svg" xmlns:xlink="http://www.w3.org/1999/xlink" x="0px" y="0px"
	 width="512px" height="512px" viewBox="0 0 512 512" enable-background="new 0 0 512 512" xml:space="preserve">
<g>
	<path fill="#B7B7B7" d="M454.79,24.774H57.209C30.97,24.774,9.5,47.071,9.5,74.323c0,27.251,21.47,49.548,47.709,49.548H454.79
		c26.241,0,47.71-22.297,47.71-49.548C502.5,47.071,481.031,24.774,454.79,24.774z"/>
	<path fill="#B7B7B7" d="M454.79,206.452H57.209C30.97,206.452,9.5,228.749,9.5,256c0,27.252,21.47,49.549,47.709,49.549H454.79
		c26.241,0,47.71-22.297,47.71-49.549C502.5,228.749,481.031,206.452,454.79,206.452z"/>
	<path fill="#B7B7B7" d="M454.79,388.129H57.209c-26.24,0-47.709,22.297-47.709,49.549c0,27.251,21.47,49.548,47.709,49.548H454.79
		c26.241,0,47.71-22.297,47.71-49.548C502.5,410.426,481.031,388.129,454.79,388.129z"/>
</g>
</svg>
