<?xml version="1.0" encoding="utf-8"?>
<!-- Generator: Adobe Illustrator 16.0.0, SVG Export Plug-In . SVG Version: 6.00 Build 0)  -->
<!DOCTYPE svg PUBLIC "-//W3C//DTD SVG 1.1//EN" "http://www.w3.org/Graphics/SVG/1.1/DTD/svg11.dtd">
<svg version="1.1" id="Layer_1" xmlns="http://www.w3.org/2000/svg" xmlns:xlink="http://www.w3.org/1999/xlink" x="0px" y="0px"
	 width="186.707px" height="73.825px" viewBox="0 0 186.707 73.825" enable-background="new 0 0 186.707 73.825"
	 xml:space="preserve">
<g>
	<rect fill="#E4412B" width="131.93" height="56.258"/>
	<rect x="131.93" fill="#F58220" width="54.771" height="56.258"/>
	<g>
		<g>
			<path fill="#FFFFFF" d="M18.323,37.098c1.314,1.613,2.752,2.676,5.072,2.676c2.059,0,4.337-0.891,4.337-3.055
				c0-2.125-2.109-2.68-4.211-3.142c-3.755-0.851-6.982-1.657-6.982-5.774c0-3.864,3.738-5.843,7.403-5.843
				c2.781,0,5.365,1.054,6.736,3.59l-2.775,1.825C27.063,25.974,25.669,25,23.727,25c-1.807,0-3.871,0.886-3.871,2.756
				c0,1.661,2.355,2.383,4.964,2.888c3.503,0.684,6.491,1.954,6.491,5.943c0,4.498-3.997,6.227-7.916,6.227
				c-3.333,0-5.747-0.888-7.704-3.676L18.323,37.098z"/>
			<path fill="#FFFFFF" d="M69.873,21.959c-3.003,0-4.827,1.43-6.261,3.759c-0.641-1.356-1.994-3.759-6.272-3.759
				c-3.047,0-5.392,1.583-6.409,3.373c0.006-1.745-0.193-2.891-0.193-2.891h-3.106v9.683c0,4.549-1.867,7.649-6.165,7.649
				c-3.103,0-4.545-2.081-4.545-5.395V22.441h-3.309v12.276c0,4.803,2.329,8.095,7.557,8.095c3.265,0,5.732-1.813,6.629-3.752
				c-0.007,1.948,0.187,3.271,0.187,3.271h2.921v-0.006c0-0.684,0.002-5.587,0.012-10.358c0.178-4.173,2.063-6.97,6.121-6.97
				c2.714,0,3.811,1.695,3.811,6.073v11.261h3.313V30.858c0-3.568,2.326-5.86,5.121-5.86c3.851,0,4.832,2.676,4.832,5.436v11.896
				h3.305V30.263C77.419,25.124,75.552,21.959,69.873,21.959z"/>
			<path fill="#FFFFFF" d="M94.314,32.792v1.272c-0.082,3.19-2.035,5.924-5.854,5.924c-2.505,0-4.377-0.927-4.377-3.407
				c0-2.652,2.723-3.789,6.922-3.789H94.314z M83.493,27.167c1.57-1.449,3.776-2.169,5.897-2.169c3.103,0,4.924,1.488,4.924,4.377
				v0.598h-1.268c-4.878,0-12.535,0.384-12.535,6.977c0,3.806,3.367,5.854,7.396,5.854c3.014,0,5.223-1.449,6.537-3.497h0.08
				c0,0.912,0,2.135,0.217,3.023h3.182c-0.174-1.015-0.297-2.283-0.297-3.427v-8.548c0-5.617-2.463-8.398-8.313-8.398
				c-2.891,0-5.86,0.967-7.896,3.039L83.493,27.167z"/>
		</g>
		<g>
			<polygon fill="#FFFFFF" points="118.633,21.045 111.482,21.045 111.482,13.892 109.576,13.892 109.576,21.045 102.414,21.045 
				102.414,22.963 109.576,22.963 109.576,30.111 111.482,30.111 111.482,22.963 118.633,22.963 			"/>
		</g>
	</g>
	<g>
		<path fill="#A5A8AB" d="M0.405,63.856h2.207v2.791H2.63c0.379-0.443,0.874-0.766,1.805-0.766c1.034,0,1.988,0.635,1.988,1.959
			v3.959H4.215v-3.025c0-0.666-0.082-1.135-0.728-1.135c-0.377,0-0.875,0.195-0.875,1.109v3.051H0.405V63.856z"/>
		<path fill="#A5A8AB" d="M9.427,65.405h-2.2v-1.549h2.2V65.405z M7.227,66.03h2.2v5.771h-2.2V66.03z"/>
		<path fill="#59595C" d="M10.175,63.856h2.205v7.943h-2.205V63.856z"/>
		<path fill="#59595C" d="M18.61,70.51c0,0.439,0.022,0.931,0.271,1.291h-2.25c-0.058-0.149-0.093-0.387-0.082-0.541h-0.016
			c-0.468,0.531-1.148,0.687-1.863,0.687c-1.113,0-2.031-0.53-2.031-1.743c0-1.828,2.133-1.759,3.254-1.974
			c0.305-0.054,0.602-0.146,0.602-0.513c0-0.389-0.363-0.533-0.722-0.533c-0.681,0-0.813,0.348-0.821,0.589h-2.048
			c0.028-0.813,0.433-1.289,1.001-1.56c0.551-0.262,1.286-0.332,1.97-0.332c2.758,0,2.735,1.145,2.735,2.261V70.51z M16.495,69.206
			c-0.268,0.142-0.563,0.213-0.867,0.283c-0.492,0.11-0.742,0.232-0.742,0.623c0,0.27,0.289,0.537,0.68,0.537
			c0.507,0,0.898-0.303,0.93-0.9L16.495,69.206L16.495,69.206z"/>
		<path fill="#59595C" d="M19.128,66.03h2.111v0.922h0.025c0.357-0.691,0.822-1.07,1.623-1.07c0.227,0,0.438,0.033,0.645,0.091
			v1.944c-0.216-0.076-0.418-0.145-0.866-0.145c-0.869,0-1.337,0.516-1.337,1.756v2.271h-2.201V66.03z"/>
		<path fill="#59595C" d="M25.999,65.405h-2.206v-1.549h2.206V65.405z M23.793,66.03h2.206v5.771h-2.206V66.03z"/>
		<path fill="#59595C" d="M29.396,71.946c-2.174,0-3.148-1.436-3.148-3.041c0-1.602,0.975-3.023,3.148-3.023
			c2.168,0,3.146,1.423,3.146,3.023C32.542,70.51,31.563,71.946,29.396,71.946z M29.396,67.483c-0.836,0-0.949,0.812-0.949,1.422
			c0,0.623,0.113,1.441,0.949,1.441c0.834,0,0.936-0.818,0.936-1.441C30.331,68.295,30.229,67.483,29.396,67.483z"/>
		<path fill="#59595C" d="M38.854,71.801h-2.123v-0.725h-0.022c-0.411,0.574-1.003,0.869-1.878,0.869
			c-1.035,0-1.979-0.631-1.979-1.957V66.03h2.203v3.021c0,0.67,0.078,1.143,0.717,1.143c0.38,0,0.88-0.188,0.88-1.115V66.03h2.202
			V71.801z"/>
		<path fill="#59595C" d="M42.732,67.706c-0.005-0.19-0.106-0.332-0.254-0.435c-0.134-0.11-0.313-0.163-0.492-0.163
			c-0.306,0-0.663,0.062-0.663,0.441c0,0.168,0.131,0.246,0.255,0.304c0.368,0.155,1.204,0.196,1.939,0.442
			c0.729,0.238,1.383,0.675,1.383,1.617c0,1.604-1.54,2.032-2.943,2.032c-1.354,0-2.848-0.544-2.886-2.032h2.102
			c0.02,0.198,0.103,0.375,0.27,0.506c0.121,0.109,0.322,0.174,0.592,0.174c0.291,0,0.748-0.113,0.748-0.445
			c0-0.335-0.191-0.434-1.214-0.611c-1.679-0.295-2.364-0.826-2.364-1.818c0-1.457,1.572-1.836,2.73-1.836
			c1.246,0,2.754,0.347,2.805,1.824H42.732z"/>
		<path fill="#59595C" d="M47.505,63.856h2.203v2.803h0.021c0.336-0.486,0.924-0.777,1.582-0.777c1.932,0,2.459,1.65,2.459,3.004
			c0,1.445-0.791,3.062-2.424,3.062c-1.085,0-1.413-0.411-1.691-0.771h-0.027v0.625h-2.123V63.856z M50.604,67.483
			c-0.797,0-0.977,0.746-0.977,1.422c0,0.694,0.18,1.441,0.977,1.441c0.781,0,0.958-0.747,0.958-1.441
			C51.563,68.229,51.386,67.483,50.604,67.483z"/>
		<path fill="#59595C" d="M54.054,66.03h2.113v0.922h0.021c0.359-0.691,0.83-1.07,1.627-1.07c0.225,0,0.436,0.033,0.645,0.091v1.944
			c-0.229-0.076-0.42-0.145-0.863-0.145c-0.874,0-1.338,0.516-1.338,1.756v2.271h-2.205V66.03z"/>
		<path fill="#59595C" d="M64.422,70.51c0,0.439,0.017,0.931,0.267,1.291h-2.257c-0.048-0.149-0.082-0.387-0.074-0.541h-0.02
			c-0.47,0.531-1.148,0.687-1.86,0.687c-1.109,0-2.039-0.53-2.039-1.743c0-1.828,2.135-1.759,3.266-1.974
			c0.297-0.054,0.596-0.146,0.596-0.513c0-0.389-0.367-0.533-0.718-0.533c-0.682,0-0.812,0.348-0.827,0.589H58.71
			c0.035-0.813,0.428-1.289,1-1.56c0.561-0.262,1.29-0.332,1.969-0.332c2.76,0,2.743,1.145,2.743,2.261V70.51z M62.3,69.206
			c-0.261,0.142-0.566,0.213-0.859,0.283c-0.488,0.11-0.749,0.232-0.749,0.623c0,0.27,0.286,0.537,0.688,0.537
			c0.498,0,0.895-0.303,0.92-0.9V69.206z"/>
		<path fill="#59595C" d="M65.155,66.03h2.123v0.732h0.025c0.414-0.579,1.004-0.881,1.881-0.881c1.039,0,1.988,0.635,1.988,1.959
			v3.959h-2.209v-3.025c0-0.666-0.078-1.135-0.725-1.135c-0.376,0-0.881,0.195-0.881,1.109v3.051h-2.203L65.155,66.03L65.155,66.03z
			"/>
		<path fill="#59595C" d="M77.728,71.801h-2.127v-0.627H75.58c-0.279,0.361-0.611,0.771-1.692,0.771
			c-1.634,0-2.429-1.615-2.429-3.061c0-1.354,0.528-3.004,2.468-3.004c0.649,0,1.241,0.289,1.574,0.777h0.027v-2.804h2.2V71.801z
			 M74.636,67.483c-0.793,0-0.973,0.746-0.973,1.422c0,0.694,0.18,1.441,0.973,1.441c0.787,0,0.965-0.747,0.965-1.441
			C75.601,68.229,75.423,67.483,74.636,67.483z"/>
		<path fill="#59595C" d="M80.513,65.405h-2.2v-1.549h2.2V65.405z M78.313,66.03h2.2v5.771h-2.2V66.03z"/>
		<path fill="#59595C" d="M81.116,66.03h2.127v0.732h0.019c0.419-0.579,1.003-0.881,1.882-0.881c1.031,0,1.979,0.635,1.979,1.959
			v3.959h-2.197v-3.025c0-0.666-0.078-1.135-0.721-1.135c-0.379,0-0.881,0.195-0.881,1.109v3.051h-2.207L81.116,66.03L81.116,66.03z
			"/>
		<path fill="#59595C" d="M93.548,71.059c0,1.145-0.299,2.768-3.008,2.768c-1.363,0-2.814-0.373-3.007-1.934h2.181
			c0.016,0.054,0.077,0.141,0.129,0.206c0.128,0.196,0.366,0.422,0.641,0.422c0.706,0,0.861-0.847,0.861-1.326v-0.538h-0.017
			c-0.356,0.52-0.891,0.807-1.547,0.807c-1.702,0-2.47-1.269-2.47-2.818c0-1.501,0.858-2.762,2.5-2.762
			c0.651,0,1.26,0.254,1.517,0.852h0.017V66.03h2.203V71.059z M90.505,70.049c0.811,0,0.894-0.78,0.894-1.426
			c0-0.637-0.299-1.141-0.951-1.141c-0.621,0-0.937,0.535-0.937,1.143C89.511,69.288,89.714,70.049,90.505,70.049z"/>
		<path fill="#59595C" d="M94.777,69.6h2.32v2.201h-2.32V69.6z"/>
		<path fill="#59595C" d="M101.742,67.706c-0.01-0.19-0.111-0.332-0.254-0.435c-0.137-0.11-0.312-0.163-0.5-0.163
			c-0.305,0-0.661,0.062-0.661,0.441c0,0.168,0.138,0.246,0.26,0.304c0.36,0.155,1.203,0.196,1.935,0.442
			c0.73,0.238,1.375,0.675,1.375,1.617c0,1.604-1.539,2.032-2.936,2.032c-1.357,0-2.848-0.544-2.882-2.032h2.103
			c0.014,0.198,0.104,0.375,0.262,0.506c0.117,0.109,0.324,0.174,0.602,0.174c0.281,0,0.746-0.113,0.746-0.445
			c0-0.335-0.199-0.434-1.216-0.611c-1.683-0.295-2.36-0.826-2.36-1.818c0-1.457,1.566-1.836,2.725-1.836
			c1.25,0,2.75,0.347,2.812,1.824H101.742z"/>
		<path fill="#59595C" d="M105.889,69.413c0.057,0.65,0.43,1.123,1.123,1.123c0.355,0,0.738-0.139,0.926-0.414h2.059
			c-0.447,1.25-1.66,1.824-2.973,1.824c-1.85,0-3.242-1.084-3.242-3.016c0-1.682,1.232-3.049,3.051-3.049
			c2.293,0,3.273,1.279,3.273,3.531H105.889L105.889,69.413z M107.995,68.263c0-0.533-0.397-0.968-0.963-0.968
			c-0.654,0-1.037,0.345-1.14,0.968H107.995z"/>
		<path fill="#59595C" d="M110.271,66.03h2.112v0.922h0.031c0.354-0.691,0.83-1.07,1.619-1.07c0.225,0,0.434,0.033,0.649,0.091
			v1.944c-0.217-0.076-0.426-0.145-0.867-0.145c-0.873,0-1.34,0.516-1.34,1.756v2.271h-2.207v-5.77H110.271z"/>
		<path fill="#59595C" d="M117.363,65.405h-2.197v-1.549h2.197V65.405z M115.166,66.03h2.197v5.771h-2.197V66.03z"/>
		<path fill="#59595C" d="M120.766,71.946c-2.17,0-3.162-1.436-3.162-3.041c0-1.602,0.992-3.023,3.162-3.023
			c2.164,0,3.146,1.423,3.146,3.023C123.911,70.51,122.93,71.946,120.766,71.946z M120.766,67.483c-0.832,0-0.951,0.812-0.951,1.422
			c0,0.623,0.119,1.441,0.951,1.441c0.836,0,0.938-0.818,0.938-1.441C121.704,68.295,121.602,67.483,120.766,67.483z"/>
		<path fill="#59595C" d="M130.343,71.801h-2.129v-0.725h-0.026c-0.402,0.574-0.998,0.869-1.881,0.869
			c-1.027,0-1.979-0.631-1.979-1.957V66.03h2.205v3.021c0,0.67,0.084,1.143,0.722,1.143c0.386,0,0.886-0.188,0.886-1.115V66.03
			h2.203L130.343,71.801L130.343,71.801z"/>
		<path fill="#59595C" d="M134.331,67.706c-0.017-0.19-0.11-0.332-0.258-0.435c-0.138-0.11-0.312-0.163-0.488-0.163
			c-0.313,0-0.672,0.062-0.672,0.441c0,0.168,0.138,0.246,0.257,0.304c0.362,0.155,1.2,0.196,1.941,0.442
			c0.73,0.238,1.371,0.675,1.371,1.617c0,1.604-1.534,2.032-2.938,2.032c-1.354,0-2.846-0.544-2.879-2.032h2.102
			c0.006,0.198,0.1,0.375,0.273,0.506c0.104,0.109,0.32,0.174,0.576,0.174c0.298,0,0.752-0.113,0.752-0.445
			c0-0.335-0.188-0.434-1.217-0.611c-1.678-0.295-2.354-0.826-2.354-1.818c0-1.457,1.568-1.836,2.726-1.836
			c1.254,0,2.75,0.347,2.807,1.824H134.331z"/>
		<path fill="#59595C" d="M138.335,63.856h2.2v2.803h0.016c0.342-0.486,0.928-0.777,1.579-0.777c1.951,0,2.463,1.65,2.463,3.004
			c0,1.445-0.786,3.062-2.431,3.062c-1.074,0-1.409-0.411-1.686-0.771h-0.02v0.625h-2.123L138.335,63.856L138.335,63.856z
			 M141.421,67.483c-0.79,0-0.963,0.746-0.963,1.422c0,0.694,0.173,1.441,0.963,1.441c0.785,0,0.97-0.747,0.97-1.441
			C142.391,68.229,142.206,67.483,141.421,67.483z"/>
		<path fill="#59595C" d="M150.79,71.801h-2.126v-0.725h-0.023c-0.408,0.574-1.005,0.869-1.883,0.869
			c-1.027,0-1.979-0.631-1.979-1.957V66.03h2.199v3.021c0,0.67,0.082,1.143,0.719,1.143c0.389,0,0.892-0.188,0.892-1.115V66.03
			h2.201V71.801z"/>
		<path fill="#59595C" d="M154.552,67.706c-0.012-0.19-0.11-0.332-0.252-0.435c-0.131-0.11-0.315-0.163-0.489-0.163
			c-0.313,0-0.668,0.062-0.668,0.441c0,0.168,0.133,0.246,0.258,0.304c0.367,0.155,1.203,0.196,1.93,0.442
			c0.74,0.238,1.387,0.675,1.387,1.617c0,1.604-1.537,2.032-2.939,2.032c-1.356,0-2.85-0.544-2.885-2.032h2.101
			c0.014,0.198,0.106,0.375,0.274,0.506c0.109,0.109,0.316,0.174,0.586,0.174c0.283,0,0.75-0.113,0.75-0.445
			c0-0.335-0.195-0.434-1.217-0.611c-1.685-0.295-2.363-0.826-2.363-1.818c0-1.457,1.576-1.836,2.729-1.836
			c1.255,0,2.75,0.347,2.807,1.824H154.552z"/>
		<path fill="#59595C" d="M159.089,65.403h-2.208v-1.547h2.208V65.403z M156.881,66.03h2.208v5.771h-2.208V66.03z"/>
		<path fill="#59595C" d="M159.577,66.03h2.125v0.732h0.03c0.402-0.579,0.992-0.881,1.875-0.881c1.031,0,1.98,0.635,1.98,1.959
			v3.959h-2.207v-3.025c0-0.666-0.07-1.135-0.723-1.135c-0.373,0-0.875,0.195-0.875,1.109v3.051h-2.207L159.577,66.03L159.577,66.03
			z"/>
		<path fill="#59595C" d="M167.885,69.413c0.057,0.65,0.436,1.123,1.122,1.123c0.367,0,0.752-0.139,0.925-0.414h2.062
			c-0.441,1.25-1.658,1.824-2.975,1.824c-1.849,0-3.24-1.084-3.24-3.016c0-1.682,1.236-3.049,3.054-3.049
			c2.286,0,3.278,1.279,3.278,3.531H167.885L167.885,69.413z M170.004,68.263c0-0.533-0.404-0.968-0.965-0.968
			c-0.669,0-1.047,0.345-1.143,0.968H170.004z"/>
		<path fill="#59595C" d="M175.613,67.706c-0.014-0.19-0.108-0.332-0.254-0.435c-0.137-0.11-0.312-0.163-0.494-0.163
			c-0.309,0-0.661,0.062-0.661,0.441c0,0.168,0.129,0.246,0.244,0.304c0.377,0.155,1.209,0.196,1.946,0.442
			c0.732,0.238,1.383,0.675,1.383,1.617c0,1.604-1.541,2.032-2.941,2.032c-1.354,0-2.857-0.544-2.88-2.032h2.104
			c0.012,0.198,0.097,0.375,0.26,0.506c0.117,0.109,0.33,0.174,0.6,0.174c0.279,0,0.738-0.113,0.738-0.445
			c0-0.335-0.189-0.434-1.213-0.611c-1.674-0.295-2.35-0.826-2.35-1.818c0-1.457,1.557-1.836,2.721-1.836
			c1.248,0,2.746,0.347,2.8,1.824H175.613z"/>
		<path fill="#59595C" d="M181.234,67.706c-0.01-0.19-0.112-0.332-0.25-0.435c-0.133-0.11-0.315-0.163-0.489-0.163
			c-0.315,0-0.669,0.062-0.669,0.441c0,0.168,0.136,0.246,0.261,0.304c0.356,0.155,1.199,0.196,1.925,0.442
			c0.744,0.238,1.381,0.675,1.381,1.617c0,1.604-1.533,2.032-2.933,2.032c-1.358,0-2.851-0.544-2.883-2.032h2.098
			c0.015,0.198,0.109,0.375,0.265,0.506c0.115,0.109,0.328,0.174,0.598,0.174c0.293,0,0.75-0.113,0.75-0.445
			c0-0.335-0.196-0.434-1.215-0.611c-1.688-0.295-2.361-0.826-2.361-1.818c0-1.457,1.566-1.836,2.727-1.836
			c1.246,0,2.75,0.347,2.803,1.824H181.234z"/>
		<path fill="#59595C" d="M184.395,69.6h2.312v2.201h-2.312V69.6z"/>
	</g>
	<g>
		<path fill="#FFFFFF" d="M141.792,13.63h8.453v10.716h0.092c1.447-1.708,3.324-2.949,6.918-2.949c3.97,0,7.601,2.434,7.601,7.517
			v15.204H156.4V32.502c0-2.562-0.301-4.356-2.776-4.356c-1.454,0-3.378,0.727-3.378,4.273v11.699h-8.453L141.792,13.63
			L141.792,13.63z"/>
		<path fill="#FFFFFF" d="M175.309,19.564h-8.453V13.63h8.453V19.564z M166.855,21.953h8.451v22.165h-8.451V21.953z"/>
	</g>
</g>
</svg>
