<?xml version="1.0" encoding="utf-8"?>
<!-- Generator: Adobe Illustrator 16.0.0, SVG Export Plug-In . SVG Version: 6.00 Build 0)  -->
<!DOCTYPE svg PUBLIC "-//W3C//DTD SVG 1.1//EN" "http://www.w3.org/Graphics/SVG/1.1/DTD/svg11.dtd">
<svg version="1.1" id="Layer_1" xmlns="http://www.w3.org/2000/svg" xmlns:xlink="http://www.w3.org/1999/xlink" x="0px" y="0px"
	 width="748.8px" height="570.156px" viewBox="0 0 748.8 570.156" enable-background="new 0 0 748.8 570.156" xml:space="preserve">
<g>
	<path fill="#FFFFFF" d="M40.578,0C64.543,0,79.98,15.878,79.98,40.136c0,24.112-15.438,39.991-39.402,39.991
		c-23.817,0-39.254-15.879-39.254-39.991C1.324,15.878,16.761,0,40.578,0z M40.578,64.395c14.261,0,18.526-12.201,18.526-24.259
		c0-12.203-4.265-24.405-18.526-24.405c-14.115,0-18.377,12.202-18.377,24.405C22.201,52.193,26.463,64.395,40.578,64.395z"/>
	<path fill="#FFFFFF" d="M162.642,78.067h-19.848V67.483h-0.442c-5.292,8.526-14.406,12.644-23.229,12.644
		c-22.199,0-27.786-12.496-27.786-31.315V2.058h20.877v42.93c0,12.498,3.675,18.672,13.379,18.672
		c11.32,0,16.173-6.321,16.173-21.759V2.058h20.876V78.067z"/>
	<path fill="#FFFFFF" d="M177.586,2.058h19.848v14.113h0.293C201.549,6.616,211.842,0,221.985,0c1.472,0,3.237,0.294,4.558,0.734
		v19.407c-1.91-0.441-4.999-0.737-7.497-0.737c-15.292,0-20.583,11.027-20.583,24.407v34.256h-20.877V2.058z"/>
	<path fill="#FFFFFF" d="M20.878,167.642c0.589,13.232,7.058,19.261,18.671,19.261c8.381,0,15.143-5.146,16.466-9.851h18.379
		c-5.88,17.936-18.379,25.583-35.58,25.583C14.849,202.635,0,186.166,0,162.644c0-22.789,15.732-40.136,38.814-40.136
		c25.875,0,38.373,21.758,36.904,45.134H20.878z M54.839,154.411c-1.911-10.586-6.468-16.173-16.613-16.173
		c-13.232,0-17.054,10.291-17.348,16.173H54.839z"/>
	<path fill="#FFFFFF" d="M102.571,160.584l-24.994-36.019h23.817l13.379,19.848l13.232-19.848h23.081l-24.993,35.58l28.081,40.429
		h-23.817l-15.878-23.963L98.6,200.574H75.224L102.571,160.584z"/>
	<path fill="#FFFFFF" d="M161.268,124.565h19.848v9.702h0.293c4.999-8.086,13.232-11.76,22.641-11.76
		c23.818,0,34.551,19.258,34.551,40.871c0,20.289-11.174,39.256-33.375,39.256c-9.114,0-17.789-3.971-22.788-11.468h-0.293v36.166
		h-20.876V124.565z M217.724,162.791c0-12.058-4.853-24.553-18.23-24.553c-13.674,0-18.085,12.202-18.085,24.553
		c0,12.349,4.706,24.111,18.23,24.111C213.313,186.902,217.724,175.14,217.724,162.791z"/>
	<path fill="#FFFFFF" d="M267.056,167.642c0.588,13.232,7.057,19.261,18.671,19.261c8.381,0,15.143-5.146,16.466-9.851h18.378
		c-5.88,17.936-18.378,25.583-35.58,25.583c-23.965,0-38.813-16.469-38.813-39.991c0-22.789,15.732-40.136,38.813-40.136
		c25.876,0,38.374,21.758,36.902,45.134H267.056z M301.017,154.411c-1.911-10.586-6.469-16.173-16.613-16.173
		c-13.232,0-17.054,10.291-17.348,16.173H301.017z"/>
	<path fill="#FFFFFF" d="M332.824,124.565h19.848v14.113h0.293c3.822-9.556,14.115-16.171,24.258-16.171
		c1.471,0,3.236,0.293,4.559,0.733v19.407c-1.91-0.44-4.999-0.736-7.498-0.736c-15.291,0-20.583,11.027-20.583,24.407v34.255
		h-20.876V124.565z"/>
	<path fill="#FFFFFF" d="M410.064,112.803h-20.877V95.602h20.877V112.803z M389.187,124.565h20.877v76.009h-20.877V124.565z"/>
	<path fill="#FFFFFF" d="M442.434,167.642c0.589,13.232,7.058,19.261,18.672,19.261c8.381,0,15.143-5.146,16.467-9.851h18.377
		c-5.88,17.936-18.377,25.583-35.579,25.583c-23.965,0-38.814-16.469-38.814-39.991c0-22.789,15.731-40.136,38.814-40.136
		c25.875,0,38.374,21.758,36.901,45.134H442.434z M476.395,154.411c-1.909-10.586-6.467-16.173-16.613-16.173
		c-13.231,0-17.054,10.291-17.348,16.173H476.395z"/>
	<path fill="#FFFFFF" d="M508.204,124.565h19.848v10.584h0.439c5.292-8.526,14.408-12.642,23.23-12.642
		c22.2,0,27.787,12.496,27.787,31.314v46.752h-20.877v-42.93c0-12.497-3.677-18.671-13.379-18.671
		c-11.322,0-16.173,6.32-16.173,21.758v39.843h-20.876V124.565z"/>
	<path fill="#FFFFFF" d="M645.159,151.324c-1.322-8.528-6.764-13.086-15.438-13.086c-13.379,0-17.789,13.524-17.789,24.699
		c0,10.88,4.263,23.965,17.349,23.965c9.702,0,15.29-6.176,16.614-15.438h20.14c-2.646,20.141-16.612,31.17-36.606,31.17
		c-22.936,0-38.373-16.174-38.373-38.962c0-23.67,14.113-41.165,38.814-41.165c17.935,0,34.402,9.407,35.725,28.816H645.159z"/>
	<path fill="#FFFFFF" d="M693.844,167.642c0.588,13.232,7.057,19.261,18.672,19.261c8.381,0,15.141-5.146,16.465-9.851h18.379
		c-5.88,17.936-18.379,25.583-35.58,25.583c-23.965,0-38.813-16.469-38.813-39.991c0-22.789,15.731-40.136,38.813-40.136
		c25.876,0,38.373,21.758,36.904,45.134H693.844z M727.805,154.411c-1.91-10.586-6.469-16.173-16.613-16.173
		c-13.232,0-17.054,10.291-17.348,16.173H727.805z"/>
	<path fill="#FFFFFF" d="M25.141,235.311H4.265v-17.201h20.876V235.311z M4.265,247.073h20.876v76.008H4.265V247.073z"/>
	<path fill="#FFFFFF" d="M56.231,298.383c0.147,9.114,7.792,12.792,16.026,12.792c6.029,0,13.674-2.354,13.674-9.704
		c0-6.322-8.676-8.527-23.67-11.762c-12.058-2.646-24.113-6.908-24.113-20.288c0-19.409,16.761-24.405,33.08-24.405
		c16.613,0,31.905,5.587,33.522,24.258H84.902c-0.588-8.087-6.764-10.293-14.263-10.293c-4.704,0-11.615,0.882-11.615,7.059
		c0,7.498,11.763,8.526,23.672,11.32c12.204,2.793,24.111,7.203,24.111,21.316c0,19.996-17.35,26.466-34.697,26.466
		c-17.642,0-34.843-6.618-35.727-26.759H56.231z"/>
	<path fill="#FFFFFF" d="M141.346,270.45c1.177-19.555,18.674-25.435,35.727-25.435c15.143,0,33.373,3.382,33.373,21.61v39.549
		c0,6.909,0.736,13.82,2.647,16.906h-21.171c-0.736-2.352-1.324-4.849-1.47-7.349c-6.618,6.91-16.32,9.409-25.582,9.409
		c-14.408,0-25.878-7.204-25.878-22.789c0-17.201,12.939-21.318,25.878-23.081c12.791-1.912,24.699-1.473,24.699-9.998
		c0-8.969-6.175-10.293-13.526-10.293c-7.939,0-13.085,3.234-13.819,11.47H141.346z M189.57,285.887
		c-3.527,3.087-10.88,3.234-17.35,4.411c-6.468,1.324-12.349,3.529-12.349,11.173c0,7.793,6.028,9.704,12.792,9.704
		c16.317,0,16.906-12.938,16.906-17.495V285.887z"/>
	<path fill="#FFFFFF" d="M251.517,247.073h15.29v13.965h-15.29v37.638c0,7.059,1.765,8.821,8.821,8.821
		c2.205,0,4.263-0.145,6.469-0.586v16.318c-3.527,0.589-8.086,0.735-12.204,0.735c-12.791,0-23.963-2.941-23.963-18.083v-44.844
		h-12.646v-13.965h12.646v-22.789h20.876V247.073z"/>
	<path fill="#FFFFFF" d="M333.841,247.073h15.29v13.965h-15.29v37.638c0,7.059,1.765,8.821,8.821,8.821
		c2.205,0,4.263-0.145,6.469-0.586v16.318c-3.527,0.589-8.086,0.735-12.204,0.735c-12.791,0-23.963-2.941-23.963-18.083v-44.844
		h-12.646v-13.965h12.646v-22.789h20.876V247.073z"/>
	<path fill="#FFFFFF" d="M359.284,218.109h20.875v39.548h0.441c5.294-8.526,14.408-12.642,22.2-12.642
		c22.2,0,27.788,12.495,27.788,31.314v46.751h-20.876v-42.929c0-12.498-3.678-18.671-13.38-18.671
		c-11.321,0-16.174,6.32-16.174,21.758v39.842h-20.875V218.109z"/>
	<path fill="#FFFFFF" d="M462.426,290.149c0.588,13.232,7.057,19.261,18.671,19.261c8.38,0,15.142-5.147,16.466-9.851h18.379
		c-5.881,17.936-18.379,25.582-35.58,25.582c-23.965,0-38.814-16.468-38.814-39.99c0-22.789,15.732-40.136,38.814-40.136
		c25.875,0,38.373,21.758,36.902,45.134H462.426z M496.387,276.918c-1.91-10.585-6.469-16.172-16.614-16.172
		c-13.231,0-17.054,10.29-17.347,16.172H496.387z"/>
	<path fill="#F58220" d="M3.677,340.616h29.109v36.904h0.295c4.998-5.882,11.467-10.146,23.817-10.146
		c13.673,0,26.168,8.379,26.168,25.876v52.338h-29.11V405.6c0-8.821-1.029-14.995-9.556-14.995c-4.999,0-11.615,2.5-11.615,14.703
		v40.281H3.677V340.616z"/>
	<path fill="#F58220" d="M126.607,361.053H97.498v-20.437h29.109V361.053z M97.498,369.286h29.109v76.303H97.498V369.286z"/>
	<path fill="#FFFFFF" d="M213.419,440.74c0,12.494-4.41,33.665-39.402,33.665c-14.997,0-32.491-7.056-33.522-24.405h20.731
		c1.91,7.792,8.233,10.44,15.584,10.44c11.615,0,16.906-7.94,16.761-18.818v-9.998h-0.295c-4.558,7.94-13.672,11.761-22.788,11.761
		c-22.79,0-32.492-17.348-32.492-38.225c0-19.702,11.32-37.637,32.639-37.637c9.998,0,17.642,3.381,22.641,12.202h0.295v-10.145
		h19.847V440.74z M193.572,406.63c0-12.351-4.266-23.377-17.79-23.377c-11.762,0-16.908,10.29-16.908,21.612
		c0,10.879,4.117,22.789,16.908,22.789C187.689,427.654,193.572,417.509,193.572,406.63z"/>
	<path fill="#FFFFFF" d="M228.758,340.616h20.876v39.548h0.44c5.294-8.525,14.408-12.641,22.201-12.641
		c22.201,0,27.788,12.495,27.788,31.314v46.751h-20.876V402.66c0-12.498-3.676-18.671-13.379-18.671
		c-11.322,0-16.173,6.32-16.173,21.757v39.843h-20.876V340.616z"/>
	<path fill="#FFFFFF" d="M331.901,412.657c0.588,13.232,7.057,19.26,18.671,19.26c8.38,0,15.142-5.146,16.466-9.85h18.378
		c-5.881,17.935-18.378,25.581-35.58,25.581c-23.965,0-38.815-16.468-38.815-39.989c0-22.789,15.732-40.136,38.815-40.136
		c25.875,0,38.373,21.757,36.904,45.134H331.901z M365.861,399.426c-1.91-10.586-6.468-16.173-16.613-16.173
		c-13.232,0-17.055,10.29-17.348,16.173H365.861z"/>
	<path fill="#FFFFFF" d="M413.295,420.891c0.147,9.114,7.793,12.791,16.025,12.791c6.029,0,13.675-2.353,13.675-9.703
		c0-6.322-8.677-8.527-23.67-11.762c-12.058-2.646-24.113-6.909-24.113-20.288c0-19.409,16.761-24.405,33.079-24.405
		c16.613,0,31.906,5.586,33.521,24.257h-19.846c-0.589-8.087-6.764-10.292-14.264-10.292c-4.704,0-11.615,0.882-11.615,7.059
		c0,7.497,11.763,8.526,23.672,11.319c12.204,2.794,24.111,7.204,24.111,21.317c0,19.995-17.35,26.465-34.697,26.465
		c-17.641,0-34.843-6.617-35.727-26.758H413.295z"/>
	<path fill="#FFFFFF" d="M501.458,369.581h15.289v13.965h-15.289v37.638c0,7.059,1.766,8.821,8.82,8.821
		c2.207,0,4.264-0.146,6.469-0.587v16.319c-3.527,0.587-8.086,0.735-12.203,0.735c-12.791,0-23.962-2.941-23.962-18.083v-44.844
		h-12.646v-13.965h12.646v-22.789h20.876V369.581z"/>
	<path fill="#FFFFFF" d="M4.265,463.124h20.876v104.973H4.265V463.124z"/>
	<path fill="#FFFFFF" d="M57.513,535.165c0.588,13.232,7.057,19.259,18.671,19.259c8.38,0,15.142-5.146,16.466-9.849h18.377
		c-5.88,17.935-18.377,25.581-35.58,25.581c-23.964,0-38.814-16.468-38.814-39.989c0-22.79,15.732-40.138,38.814-40.138
		c25.876,0,38.374,21.759,36.902,45.136H57.513z M91.474,521.934c-1.91-10.586-6.468-16.174-16.613-16.174
		c-13.233,0-17.055,10.291-17.348,16.174H91.474z"/>
	<path fill="#FFFFFF" d="M162.36,568.097h-23.229l-26.023-76.009h21.906l16.024,51.898h0.295l16.025-51.898h20.729L162.36,568.097z"
		/>
	<path fill="#FFFFFF" d="M209.665,535.165c0.589,13.232,7.056,19.259,18.671,19.259c8.381,0,15.142-5.146,16.466-9.849h18.379
		c-5.88,17.935-18.379,25.581-35.58,25.581c-23.965,0-38.814-16.468-38.814-39.989c0-22.79,15.732-40.138,38.814-40.138
		c25.875,0,38.373,21.759,36.904,45.136H209.665z M243.625,521.934c-1.911-10.586-6.468-16.174-16.614-16.174
		c-13.231,0-17.053,10.291-17.347,16.174H243.625z"/>
	<path fill="#FFFFFF" d="M275.624,463.124H296.5v104.973h-20.876V463.124z"/>
	<path fill="#FFFFFF" d="M327.59,543.398c0.147,9.114,7.793,12.791,16.026,12.791c6.029,0,13.674-2.354,13.674-9.703
		c0-6.322-8.676-8.528-23.67-11.762c-12.058-2.646-24.113-6.909-24.113-20.288c0-19.409,16.761-24.407,33.08-24.407
		c16.613,0,31.905,5.588,33.522,24.259h-19.848c-0.588-8.087-6.764-10.292-14.263-10.292c-4.704,0-11.615,0.881-11.615,7.059
		c0,7.497,11.762,8.526,23.672,11.319c12.204,2.794,24.111,7.204,24.111,21.317c0,19.994-17.35,26.465-34.697,26.465
		c-17.642,0-34.843-6.617-35.727-26.758H327.59z"/>
</g>
</svg>
