<?xml version="1.0" encoding="utf-8"?>
<!-- Generator: Adobe Illustrator 16.0.0, SVG Export Plug-In . SVG Version: 6.00 Build 0)  -->
<!DOCTYPE svg PUBLIC "-//W3C//DTD SVG 1.1//EN" "http://www.w3.org/Graphics/SVG/1.1/DTD/svg11.dtd">
<svg version="1.1" id="Layer_1" xmlns="http://www.w3.org/2000/svg" xmlns:xlink="http://www.w3.org/1999/xlink" x="0px" y="0px"
	 width="80.041px" height="40px" viewBox="0 0 80.041 40" enable-background="new 0 0 80.041 40" xml:space="preserve">
<g opacity="0.4">
	<g>
		<path fill="#5E5E5E" d="M18.31,5.532c-0.453,0.662-1.02,1.258-1.699,1.785v0.396c0,1.133-0.213,2.281-0.639,3.443
			c-0.424,1.16-1.047,2.208-1.869,3.142c-0.822,0.936-1.832,1.695-3.031,2.281s-2.582,0.879-4.15,0.879
			c-0.963,0-1.883-0.139-2.762-0.412s-1.705-0.656-2.479-1.146c0.131,0.018,0.264,0.027,0.396,0.027c0.131,0,0.273,0,0.426,0
			c1.623,0,3.031-0.482,4.221-1.443c-0.756-0.02-1.422-0.25-1.998-0.695c-0.576-0.443-0.967-1.006-1.176-1.686
			c0.227,0.057,0.436,0.086,0.623,0.086c0.172,0,0.326-0.01,0.469-0.029c0.141-0.018,0.287-0.047,0.439-0.084
			c-0.795-0.17-1.451-0.562-1.969-1.175c-0.52-0.613-0.779-1.336-0.779-2.168V8.706C2.56,8.819,2.8,8.915,3.054,8.989
			C3.31,9.065,3.597,9.103,3.919,9.103C3.429,8.802,3.05,8.403,2.786,7.913C2.521,7.423,2.39,6.874,2.39,6.271
			c0-0.605,0.15-1.182,0.453-1.729c0.85,1.057,1.879,1.902,3.086,2.535C7.138,7.71,8.45,8.054,9.868,8.112
			C9.812,7.884,9.782,7.64,9.782,7.374c0-0.471,0.09-0.92,0.27-1.346s0.426-0.793,0.736-1.104c0.311-0.312,0.67-0.559,1.076-0.738
			s0.846-0.268,1.318-0.268c0.51,0,0.973,0.098,1.387,0.297c0.416,0.199,0.783,0.459,1.105,0.779
			c0.377-0.057,0.756-0.16,1.133-0.312c0.377-0.15,0.729-0.312,1.049-0.48c-0.303,0.793-0.803,1.416-1.502,1.869
			c0.359-0.037,0.699-0.104,1.02-0.199C17.694,5.778,18.007,5.665,18.31,5.532z"/>
	</g>
</g>
<g opacity="0.4">
	<g>
		<path fill="#5E5E5E" d="M27.501,7.997V6.354c0-0.605,0.104-1.172,0.311-1.699c0.209-0.529,0.492-0.986,0.852-1.375
			c0.357-0.387,0.779-0.693,1.26-0.92c0.482-0.227,0.996-0.34,1.545-0.34h2.662v3.258h-2.662c-0.152,0-0.297,0.1-0.439,0.297
			c-0.143,0.199-0.213,0.439-0.213,0.723v1.699h3.314v3.314h-3.314v8.045h-3.314v-8.045h-2.662V7.997H27.501z"/>
	</g>
</g>
<g opacity="0.4">
	<g>
		<path fill="#5E5E5E" d="M45.476,7.88c-0.73,0-1.348,0.256-1.859,0.766c-0.51,0.51-0.766,1.131-0.766,1.857
			c0,0.728,0.256,1.349,0.766,1.857c0.512,0.512,1.129,0.766,1.859,0.766c0.641,0,1.209-0.203,1.705-0.609l5.291,2.666v0.131
			c0,0.729,0.256,1.35,0.766,1.857c0.51,0.51,1.129,0.766,1.859,0.766c0.729,0,1.348-0.256,1.857-0.766
			c0.51-0.508,0.764-1.129,0.764-1.857s-0.254-1.348-0.764-1.859c-0.51-0.508-1.129-0.766-1.857-0.766
			c-0.324,0-0.629,0.061-0.92,0.176c-0.291,0.117-0.553,0.262-0.785,0.438l-5.293-2.623v-0.176v-0.131l5.293-2.666
			c0.494,0.406,1.062,0.611,1.705,0.611c0.729,0,1.348-0.246,1.857-0.744c0.51-0.496,0.764-1.121,0.764-1.881
			c0-0.727-0.254-1.34-0.764-1.836c-0.51-0.494-1.129-0.742-1.857-0.742c-0.73,0-1.35,0.248-1.859,0.742
			c-0.51,0.496-0.766,1.109-0.766,1.836v0.176l-5.291,2.668C46.657,8.099,46.087,7.88,45.476,7.88z"/>
	</g>
</g>
<g opacity="0.4">
	<g>
		<path fill="#5E5E5E" d="M63.712,7.532c-0.182,0.588-0.182,1.217,0,1.883c0.18,0.668,0.469,1.33,0.865,1.986
			c0.395,0.656,0.869,1.291,1.426,1.9c0.555,0.611,1.115,1.15,1.68,1.613c0.564,0.465,1.098,0.838,1.596,1.121
			s0.895,0.424,1.189,0.424c0.293,0,0.678-0.141,1.154-0.424c0.475-0.283,0.979-0.656,1.51-1.121
			c0.531-0.463,1.057-1.002,1.578-1.613c0.52-0.609,0.969-1.244,1.342-1.9c0.373-0.656,0.639-1.318,0.797-1.986
			c0.158-0.666,0.146-1.295-0.035-1.883c-0.293-0.951-0.758-1.631-1.391-2.037c-0.633-0.408-1.301-0.611-2.002-0.611
			c-0.566,0-1.041,0.113-1.426,0.34s-0.697,0.48-0.934,0.764c-0.238,0.283-0.42,0.537-0.543,0.764
			c-0.125,0.227-0.209,0.34-0.256,0.34c-0.045,0-0.123-0.113-0.236-0.34c-0.115-0.227-0.289-0.48-0.527-0.764
			S68.95,5.45,68.565,5.224s-0.859-0.34-1.426-0.34c-0.701,0-1.375,0.203-2.02,0.611C64.476,5.901,64.005,6.581,63.712,7.532z"/>
	</g>
</g>
<g>
	<g>
		<path fill="#28BCBB" d="M18.31,25.489c-0.453,0.662-1.02,1.258-1.699,1.785v0.396c0,1.133-0.213,2.281-0.639,3.443
			c-0.424,1.16-1.047,2.209-1.869,3.143c-0.822,0.936-1.832,1.695-3.031,2.281s-2.582,0.879-4.15,0.879
			c-0.963,0-1.883-0.139-2.762-0.412s-1.705-0.656-2.479-1.146c0.131,0.018,0.264,0.027,0.396,0.027c0.131,0,0.273,0,0.426,0
			c1.623,0,3.031-0.482,4.221-1.443c-0.756-0.02-1.422-0.25-1.998-0.695c-0.576-0.443-0.967-1.006-1.176-1.686
			c0.227,0.057,0.436,0.086,0.623,0.086c0.172,0,0.326-0.01,0.469-0.029c0.141-0.018,0.287-0.047,0.439-0.084
			c-0.795-0.17-1.451-0.562-1.969-1.176c-0.52-0.613-0.779-1.336-0.779-2.168v-0.027c0.227,0.113,0.467,0.209,0.721,0.283
			c0.256,0.076,0.543,0.113,0.865,0.113c-0.49-0.301-0.869-0.699-1.133-1.189c-0.266-0.49-0.396-1.039-0.396-1.643
			c0-0.605,0.15-1.182,0.453-1.729c0.85,1.057,1.879,1.902,3.086,2.535c1.209,0.633,2.521,0.977,3.939,1.035
			c-0.057-0.229-0.086-0.473-0.086-0.738c0-0.471,0.09-0.92,0.27-1.346s0.426-0.793,0.736-1.104c0.311-0.312,0.67-0.559,1.076-0.738
			s0.846-0.268,1.318-0.268c0.51,0,0.973,0.098,1.387,0.297c0.416,0.199,0.783,0.459,1.105,0.779
			c0.377-0.057,0.756-0.16,1.133-0.312c0.377-0.15,0.729-0.312,1.049-0.48c-0.303,0.793-0.803,1.416-1.502,1.869
			c0.359-0.037,0.699-0.104,1.02-0.199C17.694,25.735,18.007,25.622,18.31,25.489z"/>
	</g>
</g>
<g>
	<g>
		<path fill="#28BCBB" d="M27.501,27.954v-1.643c0-0.605,0.104-1.172,0.311-1.699c0.209-0.529,0.492-0.986,0.852-1.375
			c0.357-0.387,0.779-0.693,1.26-0.92c0.482-0.227,0.996-0.34,1.545-0.34h2.662v3.258h-2.662c-0.152,0-0.297,0.1-0.439,0.297
			c-0.143,0.199-0.213,0.439-0.213,0.723v1.699h3.314v3.314h-3.314v8.045h-3.314v-8.045h-2.662v-3.314H27.501z"/>
	</g>
</g>
<g>
	<g>
		<path fill="#28BCBB" d="M45.476,27.836c-0.73,0-1.348,0.256-1.859,0.766c-0.51,0.51-0.766,1.131-0.766,1.857
			c0,0.729,0.256,1.35,0.766,1.857c0.512,0.512,1.129,0.766,1.859,0.766c0.641,0,1.209-0.203,1.705-0.609l5.291,2.666v0.131
			c0,0.729,0.256,1.35,0.766,1.857c0.51,0.51,1.129,0.766,1.859,0.766c0.729,0,1.348-0.256,1.857-0.766
			c0.51-0.508,0.764-1.129,0.764-1.857s-0.254-1.348-0.764-1.859c-0.51-0.508-1.129-0.766-1.857-0.766
			c-0.324,0-0.629,0.061-0.92,0.176c-0.291,0.117-0.553,0.262-0.785,0.438l-5.293-2.623v-0.176v-0.131l5.293-2.666
			c0.494,0.406,1.062,0.611,1.705,0.611c0.729,0,1.348-0.246,1.857-0.744c0.51-0.496,0.764-1.121,0.764-1.881
			c0-0.727-0.254-1.34-0.764-1.836c-0.51-0.494-1.129-0.742-1.857-0.742c-0.73,0-1.35,0.248-1.859,0.742
			c-0.51,0.496-0.766,1.109-0.766,1.836v0.176l-5.291,2.668C46.657,28.055,46.087,27.836,45.476,27.836z"/>
	</g>
</g>
<g>
	<g>
		<path fill="#28BCBB" d="M63.712,27.489c-0.182,0.588-0.182,1.217,0,1.883c0.18,0.668,0.469,1.33,0.865,1.986
			c0.395,0.656,0.869,1.291,1.426,1.9c0.555,0.611,1.115,1.15,1.68,1.613c0.564,0.465,1.098,0.838,1.596,1.121
			s0.895,0.424,1.189,0.424c0.293,0,0.678-0.141,1.154-0.424c0.475-0.283,0.979-0.656,1.51-1.121
			c0.531-0.463,1.057-1.002,1.578-1.613c0.52-0.609,0.969-1.244,1.342-1.9s0.639-1.318,0.797-1.986
			c0.158-0.666,0.146-1.295-0.035-1.883c-0.293-0.951-0.758-1.631-1.391-2.037c-0.633-0.408-1.301-0.611-2.002-0.611
			c-0.566,0-1.041,0.113-1.426,0.34s-0.697,0.48-0.934,0.764c-0.238,0.283-0.42,0.537-0.543,0.764
			c-0.125,0.227-0.209,0.34-0.256,0.34c-0.045,0-0.123-0.113-0.236-0.34c-0.115-0.227-0.289-0.48-0.527-0.764
			s-0.549-0.537-0.934-0.764s-0.859-0.34-1.426-0.34c-0.701,0-1.375,0.203-2.02,0.611C64.476,25.858,64.005,26.538,63.712,27.489z"
			/>
	</g>
</g>
</svg>
